
<svg height="306" viewBox="0 0 914 306" width="914" xmlns="http://www.w3.org/2000/svg"><g fill="#fbfbfb" fill-rule="evenodd"><path d="m381.336 204.92c30.772 0 53.312-15.68 53.312-41.944 0-16.072-7.84-28.028-27.832-41.16-15.092-9.8-18.816-15.876-18.816-22.736 0-10.192 9.604-17.444 20.972-17.444 3.724 0 7.056.588 10.192 1.568l1.764 24.108h19.208l2.94-27.636c-8.232-6.272-23.52-10.388-38.024-10.388-28.616 0-49 15.68-49 40.768 0 14.112 5.88 27.636 27.244 42.14 14.7 9.996 17.444 16.856 17.444 23.52 0 11.368-8.624 16.856-21.168 16.856-3.724 0-8.232-.784-12.74-1.764l-2.352-25.872h-19.012l-2.744 29.596c9.996 6.664 23.716 10.388 38.612 10.388zm145.205691-1.96 17.64-1.96c19.208-20.188 35.084-41.552 44.884-58.8 6.272-10.976 8.036-17.248 8.036-23.52 0-7.252-.784-10.584-3.528-14.308-2.352-1.568-5.88-2.94-9.604-2.94-10.584 0-18.62 5.684-18.62 17.444 0 6.076 2.94 12.74 5.292 19.012l2.548 7.056c-6.272 10.78-12.544 20.776-19.6 30.772l-9.996-68.208h-20.776c-9.408 20.188-19.012 40.376-28.42 60.368-1.372-14.896-2.744-29.988-4.116-45.08-1.176-13.72-6.272-20.384-17.248-20.384-10.192 0-19.992 7.252-31.948 21.952l4.508 5.88c2.744-2.548 5.684-4.312 7.448-4.312 2.156 0 3.724.588 4.312 5.292 3.332 23.324 6.86 46.452 10.192 69.776l2.352 1.96 19.992-1.96 25.872-52.92c2.744 17.64 5.684 35.28 8.428 52.92zm142.06969 1.176c15.288 0 28.812-14.308 35.476-27.048l-6.468-4.116c-5.684 7.448-8.82 11.564-11.956 11.564-2.156 0-3.136-1.372-3.136-3.92 0-1.96.588-4.116 1.372-7.252l15.68-68.208-3.136-2.744-15.484 6.468c-5.488-4.508-11.76-6.468-18.424-6.468-30.38 0-68.404 37.436-68.404 72.716 0 21.756 10.192 29.008 21.364 29.008 11.368 0 24.108-8.232 34.496-19.404 0 12.74 7.252 19.404 18.62 19.404zm-30.576-22.736c-6.468 0-10.388-4.704-10.388-17.248s5.88-34.104 14.896-41.944c3.92-3.528 7.056-4.704 10.584-4.704 3.136 0 6.468.784 9.604 2.156l-10.78 49c-.392 2.156-.784 4.312-1.176 6.272-3.724 3.332-8.428 6.468-12.74 6.468zm143.245691 22.736c18.032 0 31.948-13.132 39.592-26.852l-6.468-4.116c-5.88 7.84-9.8 11.368-12.544 11.368-1.764 0-2.744-1.372-2.744-3.92 0-1.96.588-4.116 1.372-7.252l9.408-37.24c1.568-6.076 2.156-11.368 2.156-16.268 0-11.76-7.252-17.444-15.876-17.444-12.544 0-25.872 7.056-39.592 20.384l3.332-17.248-4.116-3.528-42.728 11.564-1.372 8.036 11.368 2.156-15.876 76.244 3.136 2.548 30.38-1.568c2.744-14.308 5.292-28.224 8.428-42.336l5.096-23.716c7.056-6.86 13.524-9.8 18.62-9.8 2.548 0 4.508 1.764 4.508 4.9 0 2.94-.784 7.84-2.352 13.72l-6.86 27.244c-1.372 5.096-3.332 12.74-3.332 19.012 0 9.016 5.88 14.112 16.464 14.112z" fill-rule="nonzero"/><g transform="translate(102 35)"><path d="m102 0c56.333044 0 102 45.6669555 102 102 0 56.333044-45.666956 102-102 102-56.3330445 0-102-45.666956-102-102 0-56.3330445 45.6669555-102 102-102zm0 12c-49.7056275 0-90 40.2943725-90 90 0 49.705627 40.2943725 90 90 90 49.705627 0 90-40.294373 90-90 0-49.7056275-40.294373-90-90-90z" fill-rule="nonzero"/><path d="m37.9878046 82.9261449.7189343.0647718c.1533668.8105223.3313426 1.6171059.4557059 2.4320047 1.5160899 9.9564706 7.0065329 17.4327956 14.8040692 23.4421266 8.00891 6.171262 17.1819135 10.178358 26.4410485 14.03184 9.3711937 3.900311 18.7696332 7.746354 28.0256915 11.904001 2.953959 1.326508 5.692588 3.335308 8.18381 5.437327 9.394045 7.925788 7.326011 21.900734-3.890419 26.987505-5.858698 2.656956-12.057089 2.84208-18.3016224 2.239003-28.7841764-2.778184-55.6681868-27.490362-59.0185259-59.505558-.8977889-8.580071-.3265087-17.0227199 1.8940138-25.3546446.1546851-.5794447.454827-1.1199389.6872941-1.6783765zm98.0560854-38.7494894c4.148812 2.5392282 7.805006 5.68416 10.327429 9.931087 2.705671 4.5554683 2.929349 9.1796471.406048 13.9311812-.378363.7129271-.406048 1.8201741-.165232 2.6153789 1.433913 4.737967 3.002737 9.4352329 4.503007 14.1535058.199948.6284612.268502 1.2980612.397699 1.9488424-.185007.0949694-.369575.1903765-.554142.2853459-.54711-.6013271-1.135969-1.169393-1.633422-1.8087953-8.684779-11.1643765-18.611872-20.9580424-31.136972-27.8501082-6.281886-3.4565365-12.968502-5.6815342-20.1824537-6.1546307-4.0108269-.2630258-7.8761972.2332659-11.5148131 2.0578165-6.0199757 3.0184518-10.0756263 11.8125318-1.9392768 18.2945224 5.2751142 4.202287 11.4563668 6.6806823 17.5985086 9.2299765 11.059108 4.5896047 22.275097 8.8400329 33.132498 13.8602823 5.372232 2.4836471 10.475962 5.9086728 15.035658 9.7013228 13.070893 10.868964 15.076965 26.806757 5.557239 40.901181-4.577274 6.776089-10.685578 11.929383-17.7009 16.066461-.310689.182937-.640713.353619-.983921.455153-.180172.052955-.408684-.058208-.94437-.154489.177976-.50986.243453-.862166.411762-1.155389 5.623594-9.789727 3.830654-23.365539-5.969-32.246711-6.379004-5.781317-13.930011-9.584908-21.771053-12.879077-10.8376258-4.552842-21.868169-8.68423-32.5133178-13.640584-5.493519-2.557609-10.7857717-5.9852607-15.3832595-9.9284607-13.6083356-11.6720471-12.9799274-31.1175812-.5906159-43.4307812 7.4692699-7.4238071 16.7073114-11.3748847 26.9385017-13.1793036 17.3357195-3.0574023 33.6233595-.21576 48.6743985 8.996273z"/></g></g></svg>