<?xml version="1.0" encoding="UTF-8"?>
<svg width="14px" height="24px" viewBox="0 0 14 24" version="1.1" xmlns="http://www.w3.org/2000/svg" xmlns:xlink="http://www.w3.org/1999/xlink">
    <!-- Generator: Sketch 52.6 (67491) - http://www.bohemiancoding.com/sketch -->
    <title>Group 5</title>
    <desc>Created with Sketch.</desc>
    <g id="devices" stroke="none" stroke-width="1" fill="none" fill-rule="evenodd">
        <g id="Group-5">
            <g id="Group-4">
                <rect id="Rectangle" stroke="#FFFFFF" stroke-width="0.7" x="0.35" y="0.35" width="13.3" height="23.3" rx="1"></rect>
                <path d="M2,0 L12,0 C13.1045695,-2.02906125e-16 14,0.8954305 14,2 L14,9 L0,9 L0,2 C-1.3527075e-16,0.8954305 0.8954305,2.02906125e-16 2,0 Z M2,4 L2,7 L9,7 L9,4 L2,4 Z" id="Combined-Shape" fill="#FFFFFF"></path>
            </g>
            <circle id="Oval" fill="#FFFFFF" cx="3" cy="11" r="1"></circle>
            <circle id="Oval" fill="#FFFFFF" cx="7" cy="11" r="1"></circle>
            <circle id="Oval" fill="#FFFFFF" cx="11" cy="11" r="1"></circle>
            <circle id="Oval" fill="#FFFFFF" cx="3" cy="14" r="1"></circle>
            <circle id="Oval" fill="#FFFFFF" cx="7" cy="14" r="1"></circle>
            <circle id="Oval" fill="#FFFFFF" cx="11" cy="14" r="1"></circle>
            <circle id="Oval" fill="#FFFFFF" cx="3" cy="17" r="1"></circle>
            <circle id="Oval" fill="#FFFFFF" cx="7" cy="17" r="1"></circle>
            <circle id="Oval" fill="#FFFFFF" cx="11" cy="17" r="1"></circle>
            <circle id="Oval" fill="#FFFFFF" cx="3" cy="20" r="1"></circle>
            <circle id="Oval" fill="#FFFFFF" cx="7" cy="20" r="1"></circle>
            <circle id="Oval" fill="#FFFFFF" cx="11" cy="20" r="1"></circle>
        </g>
    </g>
</svg>