<?xml version="1.0" encoding="UTF-8"?>
<svg width="14px" height="24px" viewBox="0 0 14 24" version="1.1" xmlns="http://www.w3.org/2000/svg" xmlns:xlink="http://www.w3.org/1999/xlink">
    <!-- Generator: Sketch 52.6 (67491) - http://www.bohemiancoding.com/sketch -->
    <title>Group 6</title>
    <desc>Created with Sketch.</desc>
    <g id="devices" stroke="none" stroke-width="1" fill="none" fill-rule="evenodd">
        <g id="Group-6">
            <rect id="Rectangle" stroke="#FFFFFF" x="0.5" y="0.5" width="13" height="23" rx="2"></rect>
            <g id="unknown_device" transform="translate(1.000000, 6.000000)">
                <polygon id="Path" points="0 0 12 0 12 12 0 12"></polygon>
                <path d="M7.5,4.5 L4.5,4.5 L4.5,7.5 L7.5,7.5 L7.5,4.5 Z M6.5,6.5 L5.5,6.5 L5.5,5.5 L6.5,5.5 L6.5,6.5 Z M10.5,5.5 L10.5,4.5 L9.5,4.5 L9.5,3.5 C9.5,2.95 9.05,2.5 8.5,2.5 L7.5,2.5 L7.5,1.5 L6.5,1.5 L6.5,2.5 L5.5,2.5 L5.5,1.5 L4.5,1.5 L4.5,2.5 L3.5,2.5 C2.95,2.5 2.5,2.95 2.5,3.5 L2.5,4.5 L1.5,4.5 L1.5,5.5 L2.5,5.5 L2.5,6.5 L1.5,6.5 L1.5,7.5 L2.5,7.5 L2.5,8.5 C2.5,9.05 2.95,9.5 3.5,9.5 L4.5,9.5 L4.5,10.5 L5.5,10.5 L5.5,9.5 L6.5,9.5 L6.5,10.5 L7.5,10.5 L7.5,9.5 L8.5,9.5 C9.05,9.5 9.5,9.05 9.5,8.5 L9.5,7.5 L10.5,7.5 L10.5,6.5 L9.5,6.5 L9.5,5.5 L10.5,5.5 Z M8.5,8.5 L3.5,8.5 L3.5,3.5 L8.5,3.5 L8.5,8.5 Z" id="Shape" fill="#FFFFFF" fill-rule="nonzero"></path>
            </g>
        </g>
    </g>
</svg>