<?xml version="1.0" encoding="UTF-8"?>
<svg width="171px" height="303px" viewBox="0 0 171 303" version="1.1" xmlns="http://www.w3.org/2000/svg" xmlns:xlink="http://www.w3.org/1999/xlink">
    <!-- Generator: Sketch 52.6 (67491) - http://www.bohemiancoding.com/sketch -->
    <title>Group 2</title>
    <desc>Created with Sketch.</desc>
    <g id="devices" stroke="none" stroke-width="1" fill="none" fill-rule="evenodd">
        <g id="Group-2">
            <rect id="Rectangle" stroke="#FFFFFF" x="0.5" y="0.5" width="170" height="302" rx="11"></rect>
            <g id="unknown_device" transform="translate(33.000000, 99.000000)">
                <polygon id="Path" points="0 0 106 0 106 106 0 106"></polygon>
                <path d="M66.3333333,39.6666667 L39.6666667,39.6666667 L39.6666667,66.3333333 L66.3333333,66.3333333 L66.3333333,39.6666667 Z M57.4444444,57.4444444 L48.5555556,57.4444444 L48.5555556,48.5555556 L57.4444444,48.5555556 L57.4444444,57.4444444 Z M93,48.5555556 L93,39.6666667 L84.1111111,39.6666667 L84.1111111,30.7777778 C84.1111111,25.8888889 80.1111111,21.8888889 75.2222222,21.8888889 L66.3333333,21.8888889 L66.3333333,13 L57.4444444,13 L57.4444444,21.8888889 L48.5555556,21.8888889 L48.5555556,13 L39.6666667,13 L39.6666667,21.8888889 L30.7777778,21.8888889 C25.8888889,21.8888889 21.8888889,25.8888889 21.8888889,30.7777778 L21.8888889,39.6666667 L13,39.6666667 L13,48.5555556 L21.8888889,48.5555556 L21.8888889,57.4444444 L13,57.4444444 L13,66.3333333 L21.8888889,66.3333333 L21.8888889,75.2222222 C21.8888889,80.1111111 25.8888889,84.1111111 30.7777778,84.1111111 L39.6666667,84.1111111 L39.6666667,93 L48.5555556,93 L48.5555556,84.1111111 L57.4444444,84.1111111 L57.4444444,93 L66.3333333,93 L66.3333333,84.1111111 L75.2222222,84.1111111 C80.1111111,84.1111111 84.1111111,80.1111111 84.1111111,75.2222222 L84.1111111,66.3333333 L93,66.3333333 L93,57.4444444 L84.1111111,57.4444444 L84.1111111,48.5555556 L93,48.5555556 Z M75.2222222,75.2222222 L30.7777778,75.2222222 L30.7777778,30.7777778 L75.2222222,30.7777778 L75.2222222,75.2222222 Z" id="Shape" fill-opacity="0.389999986" fill="#FFFFFF" fill-rule="nonzero"></path>
            </g>
        </g>
    </g>
</svg>