<?xml version="1.0" encoding="UTF-8"?>
<svg width="9px" height="9px" viewBox="0 0 9 9" version="1.1" xmlns="http://www.w3.org/2000/svg" xmlns:xlink="http://www.w3.org/1999/xlink">
    <!-- Generator: Sketch 52.6 (67491) - http://www.bohemiancoding.com/sketch -->
    <title>qr_icon</title>
    <desc>Created with Sketch.</desc>
    <g id="devices" stroke="none" stroke-width="1" fill="none" fill-rule="evenodd">
        <g id="qr_icon" fill="#FFFFFF" fill-rule="nonzero">
            <path d="M0,3.85714286 L3.85714286,3.85714286 L3.85714286,0 L0,0 L0,3.85714286 Z M1.28571429,1.28571429 L2.57142857,1.28571429 L2.57142857,2.57142857 L1.28571429,2.57142857 L1.28571429,1.28571429 Z M5.14285714,0 L5.14285714,3.85714286 L9,3.85714286 L9,0 L5.14285714,0 Z M7.71428571,2.57142857 L6.42857143,2.57142857 L6.42857143,1.28571429 L7.71428571,1.28571429 L7.71428571,2.57142857 Z M0,9 L3.85714286,9 L3.85714286,5.14285714 L0,5.14285714 L0,9 Z M1.28571429,6.42857143 L2.57142857,6.42857143 L2.57142857,7.71428571 L1.28571429,7.71428571 L1.28571429,6.42857143 Z M8.35714286,5.14285714 L9,5.14285714 L9,7.71428571 L7.07142857,7.71428571 L7.07142857,7.07142857 L6.42857143,7.07142857 L6.42857143,9 L5.14285714,9 L5.14285714,5.14285714 L7.07142857,5.14285714 L7.07142857,5.78571429 L8.35714286,5.78571429 L8.35714286,5.14285714 Z M8.35714286,8.35714286 L9,8.35714286 L9,9 L8.35714286,9 L8.35714286,8.35714286 Z M7.07142857,8.35714286 L7.71428571,8.35714286 L7.71428571,9 L7.07142857,9 L7.07142857,8.35714286 Z" id="Shape"></path>
        </g>
    </g>
</svg>