<?xml version="1.0" encoding="UTF-8"?>
<svg width="124px" height="110px" viewBox="0 0 124 110" version="1.1" xmlns="http://www.w3.org/2000/svg" xmlns:xlink="http://www.w3.org/1999/xlink">
    <!-- Generator: Sketch 52.6 (67491) - http://www.bohemiancoding.com/sketch -->
    <title>Shape</title>
    <desc>Created with Sketch.</desc>
    <g id="Page-2" stroke="none" stroke-width="1" fill="none" fill-rule="evenodd">
        <path d="M65.1303835,38.9315219 C60.3594744,24.1748552 47.4431108,13.5981885 32.2576562,13.5981885 C12.9994744,13.5981885 -2.65143467,30.6348552 -2.65143467,51.5981885 C-2.65143467,72.5615219 12.9994744,89.5981885 32.2576562,89.5981885 C47.4431108,89.5981885 60.3594744,79.0215219 65.1303835,64.2648552 L90.4394744,64.2648552 L90.4394744,89.5981885 L113.712202,89.5981885 L113.712202,64.2648552 L125.348565,64.2648552 L125.348565,38.9315219 L65.1303835,38.9315219 Z M32.2576562,64.2648552 C25.8576562,64.2648552 20.6212926,58.5648552 20.6212926,51.5981885 C20.6212926,44.6315219 25.8576562,38.9315219 32.2576562,38.9315219 C38.6576562,38.9315219 43.8940199,44.6315219 43.8940199,51.5981885 C43.8940199,58.5648552 38.6576562,64.2648552 32.2576562,64.2648552 Z" id="Shape" fill="#FFFFFF" fill-rule="nonzero" transform="translate(61.348565, 51.598189) rotate(28.000000) translate(-61.348565, -51.598189) "></path>
    </g>
</svg>