<?xml version="1.0" encoding="UTF-8"?>
<svg width="171px" height="303px" viewBox="0 0 171 303" version="1.1" xmlns="http://www.w3.org/2000/svg" xmlns:xlink="http://www.w3.org/1999/xlink">
    <!-- Generator: Sketch 52.6 (67491) - http://www.bohemiancoding.com/sketch -->
    <title>Group 2</title>
    <desc>Created with Sketch.</desc>
    <g id="devices" stroke="none" stroke-width="1" fill="none" fill-rule="evenodd">
        <g id="Group-2">
            <rect id="Rectangle" stroke="#FFFFFF" x="0.5" y="0.5" width="170" height="302" rx="11"></rect>
            <rect id="Rectangle" stroke="#FFFFFF" x="12.5" y="29.5" width="147" height="247" rx="2"></rect>
            <g id="Group" opacity="0.39" transform="translate(44.000000, 87.000000)" fill="#FFFFFF">
                <rect id="p" x="0" y="0" width="4" height="4"></rect>
                <rect id="p" x="0" y="4" width="4" height="4"></rect>
                <rect id="p" x="0" y="8" width="4" height="4"></rect>
                <rect id="p" x="0" y="12" width="4" height="4"></rect>
                <rect id="p" x="0" y="16" width="4" height="4"></rect>
                <rect id="p" x="0" y="20" width="4" height="4"></rect>
                <rect id="p" x="0" y="24" width="4" height="4"></rect>
                <rect id="p" x="0" y="32" width="4" height="4"></rect>
                <rect id="p" x="0" y="40" width="4" height="4"></rect>
                <rect id="p" x="0" y="56" width="4" height="4"></rect>
                <rect id="p" x="0" y="60" width="4" height="4"></rect>
                <rect id="p" x="0" y="64" width="4" height="4"></rect>
                <rect id="p" x="0" y="68" width="4" height="4"></rect>
                <rect id="p" x="0" y="72" width="4" height="4"></rect>
                <rect id="p" x="0" y="76" width="4" height="4"></rect>
                <rect id="p" x="0" y="80" width="4" height="4"></rect>
                <rect id="p" x="4" y="0" width="4" height="4"></rect>
                <rect id="p" x="4" y="24" width="4" height="4"></rect>
                <rect id="p" x="4" y="32" width="4" height="4"></rect>
                <rect id="p" x="4" y="36" width="4" height="4"></rect>
                <rect id="p" x="4" y="40" width="4" height="4"></rect>
                <rect id="p" x="4" y="48" width="4" height="4"></rect>
                <rect id="p" x="4" y="56" width="4" height="4"></rect>
                <rect id="p" x="4" y="80" width="4" height="4"></rect>
                <rect id="p" x="8" y="0" width="4" height="4"></rect>
                <rect id="p" x="8" y="8" width="4" height="4"></rect>
                <rect id="p" x="8" y="12" width="4" height="4"></rect>
                <rect id="p" x="8" y="16" width="4" height="4"></rect>
                <rect id="p" x="8" y="24" width="4" height="4"></rect>
                <rect id="p" x="8" y="32" width="4" height="4"></rect>
                <rect id="p" x="8" y="36" width="4" height="4"></rect>
                <rect id="p" x="8" y="40" width="4" height="4"></rect>
                <rect id="p" x="8" y="44" width="4" height="4"></rect>
                <rect id="p" x="8" y="56" width="4" height="4"></rect>
                <rect id="p" x="8" y="64" width="4" height="4"></rect>
                <rect id="p" x="8" y="68" width="4" height="4"></rect>
                <rect id="p" x="8" y="72" width="4" height="4"></rect>
                <rect id="p" x="8" y="80" width="4" height="4"></rect>
                <rect id="p" x="12" y="0" width="4" height="4"></rect>
                <rect id="p" x="12" y="8" width="4" height="4"></rect>
                <rect id="p" x="12" y="12" width="4" height="4"></rect>
                <rect id="p" x="12" y="16" width="4" height="4"></rect>
                <rect id="p" x="12" y="24" width="4" height="4"></rect>
                <rect id="p" x="12" y="32" width="4" height="4"></rect>
                <rect id="p" x="12" y="40" width="4" height="4"></rect>
                <rect id="p" x="12" y="48" width="4" height="4"></rect>
                <rect id="p" x="12" y="56" width="4" height="4"></rect>
                <rect id="p" x="12" y="64" width="4" height="4"></rect>
                <rect id="p" x="12" y="68" width="4" height="4"></rect>
                <rect id="p" x="12" y="72" width="4" height="4"></rect>
                <rect id="p" x="12" y="80" width="4" height="4"></rect>
                <rect id="p" x="16" y="0" width="4" height="4"></rect>
                <rect id="p" x="16" y="8" width="4" height="4"></rect>
                <rect id="p" x="16" y="12" width="4" height="4"></rect>
                <rect id="p" x="16" y="16" width="4" height="4"></rect>
                <rect id="p" x="16" y="24" width="4" height="4"></rect>
                <rect id="p" x="16" y="36" width="4" height="4"></rect>
                <rect id="p" x="16" y="44" width="4" height="4"></rect>
                <rect id="p" x="16" y="48" width="4" height="4"></rect>
                <rect id="p" x="16" y="56" width="4" height="4"></rect>
                <rect id="p" x="16" y="64" width="4" height="4"></rect>
                <rect id="p" x="16" y="68" width="4" height="4"></rect>
                <rect id="p" x="16" y="72" width="4" height="4"></rect>
                <rect id="p" x="16" y="80" width="4" height="4"></rect>
                <rect id="p" x="20" y="0" width="4" height="4"></rect>
                <rect id="p" x="20" y="24" width="4" height="4"></rect>
                <rect id="p" x="20" y="40" width="4" height="4"></rect>
                <rect id="p" x="20" y="44" width="4" height="4"></rect>
                <rect id="p" x="20" y="56" width="4" height="4"></rect>
                <rect id="p" x="20" y="80" width="4" height="4"></rect>
                <rect id="p" x="24" y="0" width="4" height="4"></rect>
                <rect id="p" x="24" y="4" width="4" height="4"></rect>
                <rect id="p" x="24" y="8" width="4" height="4"></rect>
                <rect id="p" x="24" y="12" width="4" height="4"></rect>
                <rect id="p" x="24" y="16" width="4" height="4"></rect>
                <rect id="p" x="24" y="20" width="4" height="4"></rect>
                <rect id="p" x="24" y="24" width="4" height="4"></rect>
                <rect id="p" x="24" y="32" width="4" height="4"></rect>
                <rect id="p" x="24" y="40" width="4" height="4"></rect>
                <rect id="p" x="24" y="48" width="4" height="4"></rect>
                <rect id="p" x="24" y="56" width="4" height="4"></rect>
                <rect id="p" x="24" y="60" width="4" height="4"></rect>
                <rect id="p" x="24" y="64" width="4" height="4"></rect>
                <rect id="p" x="24" y="68" width="4" height="4"></rect>
                <rect id="p" x="24" y="72" width="4" height="4"></rect>
                <rect id="p" x="24" y="76" width="4" height="4"></rect>
                <rect id="p" x="24" y="80" width="4" height="4"></rect>
                <rect id="p" x="28" y="36" width="4" height="4"></rect>
                <rect id="p" x="28" y="44" width="4" height="4"></rect>
                <rect id="p" x="28" y="48" width="4" height="4"></rect>
                <rect id="p" x="32" y="0" width="4" height="4"></rect>
                <rect id="p" x="32" y="8" width="4" height="4"></rect>
                <rect id="p" x="32" y="12" width="4" height="4"></rect>
                <rect id="p" x="32" y="16" width="4" height="4"></rect>
                <rect id="p" x="32" y="24" width="4" height="4"></rect>
                <rect id="p" x="32" y="32" width="4" height="4"></rect>
                <rect id="p" x="32" y="36" width="4" height="4"></rect>
                <rect id="p" x="32" y="52" width="4" height="4"></rect>
                <rect id="p" x="32" y="68" width="4" height="4"></rect>
                <rect id="p" x="32" y="72" width="4" height="4"></rect>
                <rect id="p" x="32" y="76" width="4" height="4"></rect>
                <rect id="p" x="32" y="80" width="4" height="4"></rect>
                <rect id="p" x="36" y="8" width="4" height="4"></rect>
                <rect id="p" x="36" y="12" width="4" height="4"></rect>
                <rect id="p" x="36" y="20" width="4" height="4"></rect>
                <rect id="p" x="36" y="32" width="4" height="4"></rect>
                <rect id="p" x="36" y="36" width="4" height="4"></rect>
                <rect id="p" x="36" y="40" width="4" height="4"></rect>
                <rect id="p" x="36" y="44" width="4" height="4"></rect>
                <rect id="p" x="36" y="52" width="4" height="4"></rect>
                <rect id="p" x="36" y="76" width="4" height="4"></rect>
                <rect id="p" x="36" y="80" width="4" height="4"></rect>
                <rect id="p" x="40" y="0" width="4" height="4"></rect>
                <rect id="p" x="40" y="4" width="4" height="4"></rect>
                <rect id="p" x="40" y="20" width="4" height="4"></rect>
                <rect id="p" x="40" y="24" width="4" height="4"></rect>
                <rect id="p" x="40" y="32" width="4" height="4"></rect>
                <rect id="p" x="40" y="40" width="4" height="4"></rect>
                <rect id="p" x="40" y="52" width="4" height="4"></rect>
                <rect id="p" x="40" y="56" width="4" height="4"></rect>
                <rect id="p" x="40" y="60" width="4" height="4"></rect>
                <rect id="p" x="40" y="68" width="4" height="4"></rect>
                <rect id="p" x="40" y="72" width="4" height="4"></rect>
                <rect id="p" x="40" y="76" width="4" height="4"></rect>
                <rect id="p" x="40" y="80" width="4" height="4"></rect>
                <rect id="p" x="44" y="0" width="4" height="4"></rect>
                <rect id="p" x="44" y="4" width="4" height="4"></rect>
                <rect id="p" x="44" y="8" width="4" height="4"></rect>
                <rect id="p" x="44" y="16" width="4" height="4"></rect>
                <rect id="p" x="44" y="20" width="4" height="4"></rect>
                <rect id="p" x="44" y="28" width="4" height="4"></rect>
                <rect id="p" x="44" y="32" width="4" height="4"></rect>
                <rect id="p" x="44" y="36" width="4" height="4"></rect>
                <rect id="p" x="44" y="40" width="4" height="4"></rect>
                <rect id="p" x="44" y="44" width="4" height="4"></rect>
                <rect id="p" x="44" y="52" width="4" height="4"></rect>
                <rect id="p" x="44" y="56" width="4" height="4"></rect>
                <rect id="p" x="48" y="0" width="4" height="4"></rect>
                <rect id="p" x="48" y="12" width="4" height="4"></rect>
                <rect id="p" x="48" y="20" width="4" height="4"></rect>
                <rect id="p" x="48" y="24" width="4" height="4"></rect>
                <rect id="p" x="48" y="28" width="4" height="4"></rect>
                <rect id="p" x="48" y="32" width="4" height="4"></rect>
                <rect id="p" x="48" y="36" width="4" height="4"></rect>
                <rect id="p" x="48" y="48" width="4" height="4"></rect>
                <rect id="p" x="48" y="56" width="4" height="4"></rect>
                <rect id="p" x="48" y="64" width="4" height="4"></rect>
                <rect id="p" x="48" y="72" width="4" height="4"></rect>
                <rect id="p" x="48" y="80" width="4" height="4"></rect>
                <rect id="p" x="52" y="32" width="4" height="4"></rect>
                <rect id="p" x="52" y="52" width="4" height="4"></rect>
                <rect id="p" x="52" y="56" width="4" height="4"></rect>
                <rect id="p" x="52" y="60" width="4" height="4"></rect>
                <rect id="p" x="52" y="68" width="4" height="4"></rect>
                <rect id="p" x="52" y="72" width="4" height="4"></rect>
                <rect id="p" x="52" y="76" width="4" height="4"></rect>
                <rect id="p" x="56" y="0" width="4" height="4"></rect>
                <rect id="p" x="56" y="4" width="4" height="4"></rect>
                <rect id="p" x="56" y="8" width="4" height="4"></rect>
                <rect id="p" x="56" y="12" width="4" height="4"></rect>
                <rect id="p" x="56" y="16" width="4" height="4"></rect>
                <rect id="p" x="56" y="20" width="4" height="4"></rect>
                <rect id="p" x="56" y="24" width="4" height="4"></rect>
                <rect id="p" x="56" y="40" width="4" height="4"></rect>
                <rect id="p" x="56" y="52" width="4" height="4"></rect>
                <rect id="p" x="56" y="64" width="4" height="4"></rect>
                <rect id="p" x="56" y="68" width="4" height="4"></rect>
                <rect id="p" x="56" y="76" width="4" height="4"></rect>
                <rect id="p" x="60" y="0" width="4" height="4"></rect>
                <rect id="p" x="60" y="24" width="4" height="4"></rect>
                <rect id="p" x="60" y="36" width="4" height="4"></rect>
                <rect id="p" x="60" y="48" width="4" height="4"></rect>
                <rect id="p" x="60" y="52" width="4" height="4"></rect>
                <rect id="p" x="60" y="56" width="4" height="4"></rect>
                <rect id="p" x="60" y="64" width="4" height="4"></rect>
                <rect id="p" x="60" y="80" width="4" height="4"></rect>
                <rect id="p" x="64" y="0" width="4" height="4"></rect>
                <rect id="p" x="64" y="8" width="4" height="4"></rect>
                <rect id="p" x="64" y="12" width="4" height="4"></rect>
                <rect id="p" x="64" y="16" width="4" height="4"></rect>
                <rect id="p" x="64" y="24" width="4" height="4"></rect>
                <rect id="p" x="64" y="32" width="4" height="4"></rect>
                <rect id="p" x="64" y="36" width="4" height="4"></rect>
                <rect id="p" x="64" y="52" width="4" height="4"></rect>
                <rect id="p" x="64" y="56" width="4" height="4"></rect>
                <rect id="p" x="64" y="80" width="4" height="4"></rect>
                <rect id="p" x="68" y="0" width="4" height="4"></rect>
                <rect id="p" x="68" y="8" width="4" height="4"></rect>
                <rect id="p" x="68" y="12" width="4" height="4"></rect>
                <rect id="p" x="68" y="16" width="4" height="4"></rect>
                <rect id="p" x="68" y="24" width="4" height="4"></rect>
                <rect id="p" x="68" y="32" width="4" height="4"></rect>
                <rect id="p" x="68" y="40" width="4" height="4"></rect>
                <rect id="p" x="68" y="44" width="4" height="4"></rect>
                <rect id="p" x="68" y="56" width="4" height="4"></rect>
                <rect id="p" x="68" y="60" width="4" height="4"></rect>
                <rect id="p" x="68" y="64" width="4" height="4"></rect>
                <rect id="p" x="68" y="72" width="4" height="4"></rect>
                <rect id="p" x="68" y="80" width="4" height="4"></rect>
                <rect id="p" x="72" y="0" width="4" height="4"></rect>
                <rect id="p" x="72" y="8" width="4" height="4"></rect>
                <rect id="p" x="72" y="12" width="4" height="4"></rect>
                <rect id="p" x="72" y="16" width="4" height="4"></rect>
                <rect id="p" x="72" y="24" width="4" height="4"></rect>
                <rect id="p" x="72" y="32" width="4" height="4"></rect>
                <rect id="p" x="72" y="36" width="4" height="4"></rect>
                <rect id="p" x="72" y="60" width="4" height="4"></rect>
                <rect id="p" x="72" y="64" width="4" height="4"></rect>
                <rect id="p" x="72" y="80" width="4" height="4"></rect>
                <rect id="p" x="76" y="0" width="4" height="4"></rect>
                <rect id="p" x="76" y="24" width="4" height="4"></rect>
                <rect id="p" x="76" y="36" width="4" height="4"></rect>
                <rect id="p" x="76" y="40" width="4" height="4"></rect>
                <rect id="p" x="76" y="52" width="4" height="4"></rect>
                <rect id="p" x="76" y="60" width="4" height="4"></rect>
                <rect id="p" x="76" y="68" width="4" height="4"></rect>
                <rect id="p" x="80" y="0" width="4" height="4"></rect>
                <rect id="p" x="80" y="4" width="4" height="4"></rect>
                <rect id="p" x="80" y="8" width="4" height="4"></rect>
                <rect id="p" x="80" y="12" width="4" height="4"></rect>
                <rect id="p" x="80" y="16" width="4" height="4"></rect>
                <rect id="p" x="80" y="20" width="4" height="4"></rect>
                <rect id="p" x="80" y="24" width="4" height="4"></rect>
                <rect id="p" x="80" y="32" width="4" height="4"></rect>
                <rect id="p" x="80" y="36" width="4" height="4"></rect>
                <rect id="p" x="80" y="40" width="4" height="4"></rect>
                <rect id="p" x="80" y="44" width="4" height="4"></rect>
                <rect id="p" x="80" y="52" width="4" height="4"></rect>
                <rect id="p" x="80" y="60" width="4" height="4"></rect>
                <rect id="p" x="80" y="76" width="4" height="4"></rect>
            </g>
            <text id="Specter-DIY" font-family="Helvetica" font-size="12" font-weight="normal" fill="#F8FEFF" fill-opacity="0.39">
                <tspan x="53" y="198">Specter DIY</tspan>
            </text>
        </g>
    </g>
</svg>