<?xml version="1.0" encoding="UTF-8"?>
<svg width="15px" height="24px" viewBox="0 0 15 24" version="1.1" xmlns="http://www.w3.org/2000/svg" xmlns:xlink="http://www.w3.org/1999/xlink">
    <!-- Generator: Sketch 52.6 (67491) - http://www.bohemiancoding.com/sketch -->
    <title>Group 3</title>
    <desc>Created with Sketch.</desc>
    <g id="devices" stroke="none" stroke-width="1" fill="none" fill-rule="evenodd">
        <g id="Group-3" fill="#FFFFFF" fill-rule="nonzero">
            <g id="specter_icon">
                <path d="M12.8783652,0.0200166806 L2.14013649,0 C0.957429483,0 -3.55271368e-15,1.02085071 -3.55271368e-15,2.28190158 L-3.55271368e-15,21.7180984 C-3.55271368e-15,22.9791493 0.957429483,24 2.14013649,24 L12.8595921,24 C14.0422991,24 14.9997286,22.9791493 14.9997286,21.7180984 L14.9997286,2.28190158 C15.0185017,1.02085071 14.0610722,0.0200166806 12.8783652,0.0200166806 Z M13.9390469,21.7180984 L1.07945481,21.7180984 L1.07945481,4.00333611 L13.9390469,4.00333611 L13.9390469,21.7180984 Z" id="Shape"></path>
            </g>
            <g id="qr_icon" transform="translate(3.000000, 8.000000)">
                <path d="M0,3.85714286 L3.85714286,3.85714286 L3.85714286,0 L0,0 L0,3.85714286 Z M1.28571429,1.28571429 L2.57142857,1.28571429 L2.57142857,2.57142857 L1.28571429,2.57142857 L1.28571429,1.28571429 Z M5.14285714,0 L5.14285714,3.85714286 L9,3.85714286 L9,0 L5.14285714,0 Z M7.71428571,2.57142857 L6.42857143,2.57142857 L6.42857143,1.28571429 L7.71428571,1.28571429 L7.71428571,2.57142857 Z M0,9 L3.85714286,9 L3.85714286,5.14285714 L0,5.14285714 L0,9 Z M1.28571429,6.42857143 L2.57142857,6.42857143 L2.57142857,7.71428571 L1.28571429,7.71428571 L1.28571429,6.42857143 Z M8.35714286,5.14285714 L9,5.14285714 L9,7.71428571 L7.07142857,7.71428571 L7.07142857,7.07142857 L6.42857143,7.07142857 L6.42857143,9 L5.14285714,9 L5.14285714,5.14285714 L7.07142857,5.14285714 L7.07142857,5.78571429 L8.35714286,5.78571429 L8.35714286,5.14285714 Z M8.35714286,8.35714286 L9,8.35714286 L9,9 L8.35714286,9 L8.35714286,8.35714286 Z M7.07142857,8.35714286 L7.71428571,8.35714286 L7.71428571,9 L7.07142857,9 L7.07142857,8.35714286 Z" id="Shape"></path>
            </g>
        </g>
    </g>
</svg>