<svg baseProfile="tiny" id="Layer_1" xmlns="http://www.w3.org/2000/svg" xmlns:xlink="http://www.w3.org/1999/xlink" viewBox="0 0 179 179"><path fill="gold" d="M9.1 6H58V6.1 55s0 .1-.1.1H9.1C9 55 9 55 9 54.9L9.1 6C9 6 9 6 9.1 6z"/><path fill="gold" d="M68 6h49V55H68V6z"/><path fill="gold" d="M127 6h49V55H127V6z"/><rect x="9" y="64.9" fill="#fc0" width="49" height="49"/><path fill="#fc0" d="M68 64.9h49v48.9H68V64.9z"/><path fill="#fc0" d="M127.4 64.9h48.2c.2.0.4.2.4.4v48.2c0 .2-.2.4-.4.4h-48.2c-.2.0-.4-.2-.4-.4V65.3C127 65 127.2 64.9 127.4 64.9z"/><path fill="#ffbf00" d="M9 123.9h49v49H9v-49z"/><path fill="#ffbf00" d="M68.1 123.9h48.7c.1.0.1.1.1.1v48.7c0 .1-.1.1-.1.1H68.1c-.1.0-.1-.1-.1-.1V124C68 123.9 68.1 123.9 68.1 123.9z"/><path fill="#ffbf00" d="M127.1 123.9h48.7c.1.0.1.1.1.1v48.7c0 .1-.1.1-.1.1h-48.7c-.1.0-.1-.1-.1-.1V124C127 123.9 127.1 123.9 127.1 123.9z"/></svg>