<svg baseProfile="tiny" id="Layer_1" xmlns="http://www.w3.org/2000/svg" xmlns:xlink="http://www.w3.org/1999/xlink" viewBox="0 0 747 179"><path fill="gold" d="M9.1 6H58V6.1 55s0 .1-.1.1H9.1C9 55 9 55 9 54.9L9.1 6C9 6 9 6 9.1 6z"/><path fill="gold" d="M68 6h49V55H68V6z"/><path fill="gold" d="M127 6h49V55H127V6z"/><rect x="9" y="64.9" fill="#fc0" width="49" height="49"/><path fill="#fc0" d="M68 64.9h49v48.9H68V64.9z"/><path fill="#fc0" d="M127.4 64.9h48.2c.2.0.4.2.4.4v48.2c0 .2-.2.4-.4.4h-48.2c-.2.0-.4-.2-.4-.4V65.3C127 65 127.2 64.9 127.4 64.9z"/><path fill="#ffbf00" d="M9 123.9h49v49H9v-49z"/><path fill="#ffbf00" d="M68.1 123.9h48.7c.1.0.1.1.1.1v48.7c0 .1-.1.1-.1.1H68.1c-.1.0-.1-.1-.1-.1V124C68 123.9 68.1 123.9 68.1 123.9z"/><path fill="#ffbf00" d="M127.1 123.9h48.7c.1.0.1.1.1.1v48.7c0 .1-.1.1-.1.1h-48.7c-.1.0-.1-.1-.1-.1V124C127 123.9 127.1 123.9 127.1 123.9z"/><path fill="#fff" d="M216.4 37.7l35.9 99h.3l35.6-99h11.1l-41.1 110.6H246L205.2 37.7h11.2z"/><path fill="#fff" d="M300.8 80.8c1.5-3.3 3.9-6.2 6.7-8.4 3-2.2 6.4-3.9 10-4.8 4.2-1.1 8.4-1.6 12.7-1.6 3.5.0 7.1.3 10.5 1 3.4.6 6.6 1.9 9.5 3.8 2.9 2 5.3 4.7 6.8 7.8 1.8 3.3 2.6 7.7 2.6 13.1v42.5c0 3.9 1.9 5.9 5.7 5.9 1.1.0 2.1-.2 3.1-.6v8.2c-1.1.2-2.1.4-3 .5-1.1.1-2.2.2-3.3.2-2 .1-4.1-.3-6-1-1.4-.6-2.6-1.6-3.5-2.9s-1.4-2.8-1.6-4.4c-.3-1.9-.4-3.8-.4-5.7h-.3c-1.6 2.4-3.4 4.7-5.4 6.9-1.7 2-3.8 3.6-6 5-2.4 1.4-4.9 2.5-7.6 3.1-3.3.8-6.7 1.1-10.1 1.1-3.5.0-7-.4-10.5-1.3-3.1-.8-6-2.2-8.5-4.2-2.5-1.9-4.4-4.4-5.7-7.3-1.5-3.3-2.2-6.9-2.1-10.5.0-5.6 1.2-9.9 3.7-13.1 2.6-3.2 6-5.7 9.8-7.2 4.4-1.7 9.1-2.9 13.8-3.5 5.1-.7 10.3-1.3 15.6-1.9 2.1-.2 3.9-.5 5.4-.8 1.4-.2 2.7-.8 3.9-1.6 1.1-.8 1.9-1.9 2.4-3.2.6-1.7.9-3.5.9-5.3.1-2.8-.4-5.6-1.6-8.1-1-2-2.6-3.8-4.5-5-2-1.3-4.3-2.2-6.6-2.6-2.7-.5-5.4-.7-8.1-.7-6.2.0-11.3 1.5-15.2 4.4s-6 7.7-6.2 14.2h-9.8C298.1 88.7 299.1 84.6 300.8 80.8zm48.8 23.9c-.8 1.3-2.1 2.2-3.6 2.5-1.5.5-3.1.8-4.6 1.1-4.1.7-8.4 1.4-12.8 1.9-4.1.5-8.1 1.3-12 2.6-3.3 1-6.3 2.6-8.9 4.9-2.3 2.1-3.5 5.1-3.5 9.1.0 2.3.5 4.5 1.5 6.6 1 1.9 2.3 3.6 4 5s3.6 2.5 5.7 3.2c2.1.7 4.4 1.1 6.7 1.1 3.6.0 7.2-.6 10.7-1.7 3.3-1.1 6.3-2.8 8.9-5 5.4-4.6 8.4-11.4 8.3-18.4v-12.7H349.6z"/><path fill="#fff" d="M435 148.4V134h-.3c-2.4 5.2-6.3 9.5-11.2 12.3-5 2.9-10.6 4.3-16.4 4.3-4.4.1-8.8-.6-12.9-2.1-3.3-1.3-6.3-3.3-8.7-6-2.3-2.8-4-6-4.9-9.5-1.1-4.1-1.6-8.4-1.5-12.7V68.4h9.8v52.1c.2 7.2 1.9 12.7 5 16.4 3.1 3.7 8.6 5.6 16.4 5.6 3.8.1 7.5-.8 10.8-2.7 3-1.8 5.5-4.3 7.4-7.2 2-3.2 3.5-6.6 4.3-10.3.9-3.9 1.4-7.9 1.4-11.9v-42h9.8v80L435 148.4z"/><path fill="#fff" d="M472.3 37.7v110.6h-9.8V37.7H472.3z"/><path fill="#fff" d="M522.8 68.4v8.2h-16.3v53.9c-.1 2.6.3 5.1 1.3 7.5.9 1.8 3.1 2.8 6.6 3 2.8.0 5.6-.2 8.4-.5v8.2c-1.5.0-2.9.1-4.3.2s-2.9.1-4.3.1c-6.5.0-11.1-1.3-13.6-3.8-2.6-2.5-3.8-7.2-3.7-14V76.6H483v-8.2h13.9v-24h9.8v24H522.8z"/><path fill="#fff" d="M583.8 69.5c4.6 2.2 8.6 5.3 11.9 9.1 3.3 3.9 5.8 8.5 7.3 13.4 3.3 10.6 3.3 22 0 32.7-1.5 4.9-4 9.4-7.3 13.4-3.2 3.9-7.3 7-11.9 9.1-10.3 4.4-22 4.4-32.4.0-4.6-2.1-8.6-5.2-11.8-9.1-3.3-3.9-5.8-8.5-7.3-13.4-3.3-10.6-3.3-22 0-32.7 1.5-4.9 4-9.5 7.3-13.4 3.2-3.9 7.3-7 11.8-9.1C561.8 64.9 573.5 64.9 583.8 69.5zm-28.4 7.7c-3.5 1.9-6.4 4.6-8.8 7.8-2.4 3.3-4.2 7-5.3 10.9-2.4 8.2-2.4 16.8.0 25 1.1 3.9 2.9 7.6 5.3 10.9 2.3 3.2 5.3 5.8 8.8 7.8 7.7 3.9 16.8 3.9 24.5.0 3.5-1.9 6.4-4.6 8.8-7.8 2.4-3.3 4.2-7 5.3-10.9 2.4-8.2 2.4-16.8.0-25-1.1-3.9-2.9-7.6-5.3-10.9-2.3-3.2-5.3-5.8-8.8-7.8C572.2 73.3 563.1 73.3 555.4 77.2z"/><path fill="#fff" d="M625.9 68.4v18.7h.3c2.2-6.1 6.2-11.3 11.5-15 5.2-3.5 11.4-5.1 18.7-4.8v9.8c-4.1-.3-8.2.4-12.1 1.8-3.5 1.3-6.7 3.4-9.4 6-2.7 2.6-4.7 5.8-6.1 9.2-1.5 3.7-2.2 7.7-2.2 11.7v42.6h-9.8v-80H625.9z"/><path fill="#fff" d="M712.9 69.5c4.6 2.2 8.6 5.3 11.9 9.1 3.3 3.9 5.7 8.5 7.3 13.4 3.3 10.6 3.3 22 0 32.7-1.5 4.9-4 9.4-7.3 13.4-3.2 3.9-7.3 7-11.9 9.1-10.3 4.4-22 4.4-32.4.0-4.6-2.1-8.6-5.2-11.8-9.1-3.3-4-5.8-8.5-7.3-13.4-3.3-10.6-3.3-22 0-32.7 1.5-4.9 4-9.5 7.3-13.4 3.2-3.9 7.3-7 11.8-9.1C690.8 64.9 702.5 64.9 712.9 69.5zm-28.4 7.7c-3.5 1.9-6.4 4.6-8.8 7.8-2.4 3.3-4.2 7-5.3 10.9-2.4 8.2-2.4 16.8.0 25 1.1 3.9 2.9 7.6 5.3 10.9 2.3 3.2 5.3 5.8 8.8 7.8 7.7 3.9 16.8 3.9 24.5.0 3.5-1.9 6.4-4.6 8.8-7.8 2.4-3.3 4.2-7 5.3-11 2.4-8.2 2.4-16.8.0-25-1.1-3.9-2.9-7.6-5.3-10.9-2.3-3.2-5.3-5.8-8.8-7.8C701.2 73.3 692.1 73.3 684.5 77.2z"/><path fill="#fff" d="M728.2 35.4v.7h-3V44h-.8v-7.9h-3v-.7H728.2z"/><path fill="#fff" d="M730.2 35.4l2.8 7.5 3-7.5h1.2V44h-.8v-7.4l-3 7.4h-.8l-2.8-7.4V44H729v-8.6H730.2z"/></svg>