<?xml version="1.0" encoding="UTF-8"?>
<svg width="12px" height="24px" viewBox="0 0 12 24" version="1.1" xmlns="http://www.w3.org/2000/svg" xmlns:xlink="http://www.w3.org/1999/xlink">
    <!-- Generator: Sketch 52.6 (67491) - http://www.bohemiancoding.com/sketch -->
    <title>bitbox02_icon</title>
    <desc>Created with Sketch.</desc>
    <g id="Page-1" stroke="none" stroke-width="1" fill="none" fill-rule="evenodd">
        <g id="bitbox02_icon" fill="#FFFFFF" fill-rule="nonzero">
            <path d="M0.787018093,0.089807215 C0.360505794,0.089807215 0.0170853084,0.41504086 0.0170853084,0.818779178 L0.0170853084,20.1980871 C0.0170853084,20.6018254 0.360505794,20.9270591 0.787018093,20.9270591 L3.72327701,20.9270591 L3.72327701,23.932754 L8.28789421,23.932754 L8.28789421,20.9270591 L11.2129817,20.9270591 C11.6394931,20.9270591 11.9829151,20.6018254 11.9829151,20.1980871 L11.9829151,0.818779178 C11.9829151,0.41504086 11.6394931,0.089807215 11.2129817,0.089807215 L0.787018093,0.089807215 Z M5.73211178,5.11309873 L5.73211178,8.87010807 L3.38354243,9.89172 L3.34937159,9.90661458 L3.34937159,8.4026723 L4.52124673,7.8986566 L4.52124673,5.64077103 L5.73211178,5.11309873 Z M6.26547925,5.12536508 L7.47875327,5.6554468 L7.47875327,7.91092284 L8.65062841,8.41734819 L8.65062841,9.88142579 L8.65062841,9.9188815 L6.26547925,8.88237443 L6.26547925,5.12536508 Z M6.00372336,9.33622991 L8.39894804,10.3758034 L6.01095252,11.4131865 L6.00131439,11.4175671 L3.61353645,10.3806224 L6.00372336,9.33622991 Z M4.44107776,20.9270591 L7.57009346,20.9270591 L7.57009346,23.2149533 L4.44107776,23.2149533 L4.44107776,20.9270591 Z" id="path902"></path>
        </g>
    </g>
</svg>