<?xml version="1.0" encoding="UTF-8"?>
<svg width="18px" height="18px" viewBox="0 0 18 18" version="1.1" xmlns="http://www.w3.org/2000/svg" xmlns:xlink="http://www.w3.org/1999/xlink">
    <!-- Generator: Sketch 52.6 (67491) - http://www.bohemiancoding.com/sketch -->
    <title>Bitcoin_logo</title>
    <desc>Created with Sketch.</desc>
    <g id="Page-1" stroke="none" stroke-width="1" fill="none" fill-rule="evenodd">
        <g id="Bitcoin_logo" fill="#FFFFFF">
            <path d="M17.7320935,11.006388 C16.5485243,15.7536803 11.7403089,18.6428188 6.99246277,17.4589726 C2.24655508,16.2754034 -0.642583385,11.4669111 0.541539692,6.71989569 C1.72455508,1.97204954 6.53277046,-0.917365846 11.279232,0.266203385 C16.0268012,1.44977262 18.9156628,6.25881877 17.7320935,11.006388 Z M13.0437858,7.60023415 C13.2201858,6.42109569 12.3224012,5.78721877 11.0948012,5.36435723 L11.4930166,3.76706492 L10.5207397,3.52475723 L10.1330474,5.07995723 C9.87744738,5.01626492 9.61492431,4.95617262 9.35406277,4.89663415 L9.74452431,3.331188 L8.77280123,3.08888031 L8.37430892,4.68561877 C8.16273969,4.63743415 7.95504738,4.58980338 7.75344738,4.53968031 L7.75455508,4.53469569 L6.41369354,4.19989569 L6.15504738,5.23835723 C6.15504738,5.23835723 6.876432,5.40368031 6.86120123,5.41392646 C7.25498585,5.51223415 7.32615508,5.77281877 7.31424738,5.97940338 L6.86064738,7.79906492 C6.88778585,7.805988 6.92295508,7.81595723 6.96172431,7.83146492 C6.92932431,7.82343415 6.89470892,7.81457262 6.85898585,7.805988 L6.22317046,10.3550649 C6.17498585,10.4746957 6.05286277,10.6541418 5.77760123,10.5860188 C5.78729354,10.6001418 5.07089354,10.4096188 5.07089354,10.4096188 L4.58821662,11.5225726 L5.85347815,11.837988 C6.08886277,11.8969726 6.31953969,11.9587265 6.54661662,12.0168803 L6.14424738,13.6324495 L7.11541662,13.8747572 L7.51390892,12.2763572 C7.77920123,12.3483572 8.03673969,12.4148188 8.28873969,12.4774034 L7.891632,14.0683265 L8.86390892,14.3106342 L9.26627815,12.6981111 C10.9242166,13.0118649 12.1709243,12.8853111 12.6956935,11.3857726 C13.1185551,10.178388 12.6746474,9.48192646 11.8023397,9.02777262 C12.4376012,8.88128031 12.9161243,8.46340338 13.0437858,7.60023415 Z M10.8223089,10.7153418 C10.5218474,11.9227265 8.48895508,11.2700188 7.82987815,11.1063572 L8.36378585,8.96601877 C9.02286277,9.13051108 11.1363397,9.45617262 10.8223089,10.7153418 Z M11.1230474,7.582788 C10.8488935,8.68106492 9.15689354,8.12306492 8.608032,7.98626492 L9.09209354,6.04503415 C9.64095508,6.18183415 11.4085551,6.43715723 11.1230474,7.582788 Z" id="Combined-Shape"></path>
        </g>
    </g>
</svg>