<?xml version="1.0" encoding="UTF-8"?>
<svg width="22px" height="24px" viewBox="0 0 22 24" version="1.1" xmlns="http://www.w3.org/2000/svg" xmlns:xlink="http://www.w3.org/1999/xlink">
    <!-- Generator: Sketch 52.6 (67491) - http://www.bohemiancoding.com/sketch -->
    <title>cobo_icon</title>
    <desc>Created with Sketch.</desc>
    <g id="Page-1" stroke="none" stroke-width="1" fill="none" fill-rule="evenodd">
        <g id="cobo_icon" fill="#FFFFFF" fill-rule="nonzero">
            <path d="M10.6143061,-7.10542736e-15 L10.6848124,0.00356441171 C10.8442703,0.0121133892 10.9683314,0.0222864841 11.0569958,0.0340836965 L11.0754535,0.0366365294 L11.2464619,0.0619824141 C13.0347948,0.336025267 14.7604913,0.882840635 16.3711993,1.67765047 L16.4622483,1.7229044 C16.5551886,1.76943152 16.6329871,1.83665692 16.6914697,1.91754856 L16.703626,1.93504975 C16.7091135,1.94320127 16.7144101,1.95147975 16.7195113,1.95987825 C16.7329238,1.98190402 16.7449621,2.00477665 16.7555755,2.02835248 C16.7878748,2.10010042 16.8069769,2.17836035 16.8105759,2.25957592 C16.9023288,4.330077 18.4542014,6.04469598 20.4878158,6.35751925 L20.549587,6.36656859 L20.5700235,6.36977171 C20.9156864,6.42892373 21.1706583,6.72652676 21.1764706,7.07755761 L21.1764706,7.09826672 L21.1750218,7.22388145 C21.0679159,14.4390807 16.9896678,20.9167761 11.0613086,23.8368611 L10.8810973,23.9242567 C10.7144435,24.0195965 10.5111434,24.025243 10.3394548,23.9393002 L10.309402,23.9242567 C4.24937068,21.123212 0.192516088,14.7183761 0.00693587036,7.44253408 L0.00249911576,7.22179024 L4.17873401e-05,7.01235399 C-0.00363571271,6.68966432 0.235826711,6.415884 0.555817204,6.37697806 C2.62994837,6.12479548 4.23958129,4.41411882 4.36368074,2.32277411 L4.36698558,2.25928462 L4.36835792,2.23723716 C4.38529722,2.0248714 4.50827682,1.835282 4.69517051,1.73341225 L4.71473058,1.72318958 C6.37240676,0.893335818 8.15295656,0.32717672 9.99944481,0.0516446944 L10.102095,0.0366365294 C10.2154265,0.0203307195 10.3861636,0.00811854296 10.6143061,-7.10542736e-15 Z M11.1566662,8.47058824 C10.9303704,8.47058824 10.7428332,8.64481447 10.7283601,8.86876751 L10.7283601,11.5199727 C10.728728,12.28472 11.1948115,12.9737221 11.9084097,13.2641802 C12.6221306,13.5547599 13.4420695,13.3892875 13.9845661,12.8454537 L16.0596186,10.7868365 C16.4116342,10.4371682 16.9636978,10.3825782 17.378512,10.6563796 C17.7932036,10.930181 17.9549837,11.4563856 17.7649933,11.9130455 C17.575003,12.3695839 17.086106,12.6296466 16.5970864,12.5340836 C16.108312,12.4386421 15.7555605,12.0139581 15.7547019,11.5199727 L15.7547019,11.4900636 L15.0292062,12.2090964 C15.3615973,13.0560328 16.2557416,13.5475866 17.1565091,13.3787099 C18.057154,13.2099549 18.7083216,12.4285509 18.7058755,11.5199727 L18.7023116,11.518149 C18.7019437,10.7557117 18.2385586,10.0684117 17.5280267,9.77625148 C16.8173721,9.48445599 15.9993957,9.64518667 15.4549367,10.1837925 L14.4935783,11.136748 C14.3665092,10.5244637 13.9412694,10.0143079 13.3586651,9.77515722 C12.7759382,9.53600651 12.111524,9.59886413 11.5849723,9.94293964 L11.5849723,8.86876751 C11.5703766,8.64481447 11.382962,8.47058824 11.1566662,8.47058824 Z M9.27000956,9.77625148 C8.55849639,9.48409122 7.73966139,9.64567299 7.19532501,10.1854946 L5.11144147,12.2529872 C4.70239193,12.657124 4.04055346,12.6562729 3.63260781,12.2511635 C3.22453951,11.8462973 3.22453951,11.1901222 3.63260781,10.785256 C4.04055346,10.3801465 4.70239193,10.3792955 5.11144147,10.7833106 C5.21913127,10.8910318 5.37649578,10.9337069 5.52466122,10.8949224 C5.67258141,10.8565027 5.78861164,10.7424593 5.82884199,10.5960752 C5.86907234,10.4498127 5.82737015,10.2933374 5.719803,10.1854946 C5.17558927,9.64591616 4.35687695,9.4843344 3.64573175,9.77612989 C2.93434125,10.0681685 2.47058824,10.7560764 2.47058824,11.519 C2.47058824,12.2821668 2.93434125,12.9700747 3.64573175,13.2619918 C4.35687695,13.5539088 5.17558927,13.3922055 5.719803,12.852627 L7.80552635,10.7868365 C8.15913649,10.436074 8.71328516,10.3819703 9.12932594,10.6575954 C9.54512142,10.933099 9.70677879,11.4616136 9.51507131,11.9196109 C9.32336382,12.3776083 8.83189112,12.6373062 8.34127698,12.5401627 C7.85090816,12.4430191 7.49791129,12.0156603 7.49864721,11.5199727 L7.49864721,11.4900636 L6.77327421,12.2090964 C7.10701447,13.0534795 7.99993221,13.5428449 8.89885994,13.3742114 C9.79778771,13.205578 10.4484647,12.4267272 10.4480969,11.5199727 L10.4445398,11.5199727 C10.4449078,10.7566843 9.98127738,10.0684117 9.27000956,9.77625148 Z M11.8927101,10.7872013 C12.1917394,10.4900562 12.6420005,10.4011801 13.0332653,10.5614245 C13.4244074,10.7220336 13.6795267,11.1002735 13.6795267,11.5199727 C13.6795267,12.0922566 13.2122168,12.5560898 12.6348866,12.5571856 C12.2114866,12.5579136 11.8292982,12.305632 11.6669049,11.918152 C11.504389,11.5305503 11.5934354,11.0841032 11.8927101,10.7872013 Z" id="cobo-vault"></path>
        </g>
    </g>
</svg>