<?xml version="1.0" encoding="UTF-8"?>
<svg width="14px" height="24px" viewBox="0 0 14 24" version="1.1" xmlns="http://www.w3.org/2000/svg" xmlns:xlink="http://www.w3.org/1999/xlink">
    <!-- Generator: Sketch 52.6 (67491) - http://www.bohemiancoding.com/sketch -->
    <title>Group 2</title>
    <desc>Created with Sketch.</desc>
    <g id="Page-1" stroke="none" stroke-width="1" fill="none" fill-rule="evenodd">
        <g id="Group-2">
            <path d="M7.6299562,12.2802401 C7.77796649,12.2049043 7.87057321,12.0722265 7.84894088,11.8511922 C7.81980913,11.549126 7.55876732,11.4478362 7.22923768,11.4189904 L7.22917413,11 L6.97385222,11 L6.97378072,11.4079717 C6.90660371,11.4079717 6.83812383,11.4092904 6.76995377,11.4106568 L6.76989816,11.0000556 L6.51480664,11.0000318 L6.51475897,11.4189189 C6.45947458,11.420047 6.40518322,11.4211195 6.35217089,11.4211195 L6.35217089,11.4198802 L6,11.4197372 L6.00004767,11.6920837 C6.00004767,11.6920837 6.18859772,11.6885406 6.1854915,11.6919805 C6.2888707,11.692052 6.32262603,11.7520314 6.33233397,11.8038044 L6.33241341,12.2811219 L6.33241341,12.9515971 C6.32786133,12.9840893 6.30870762,13.0360054 6.23642242,13.0361007 C6.23971136,13.0389924 6.05069259,13.0360689 6.05069259,13.0360689 L6.00004767,13.3406137 L6.33225453,13.3406137 C6.39415653,13.3406852 6.4549781,13.3416465 6.51464775,13.3421231 L6.51487019,13.7658563 L6.76989816,13.7659278 L6.76982666,13.3466355 C6.83999074,13.3480655 6.90771591,13.3486851 6.97386811,13.3485977 L6.97379661,13.7659278 L7.22911058,13.7659278 L7.22925357,13.3429017 C7.65842064,13.3182743 7.95887413,13.2102557 7.99622823,12.8075749 C8.02633714,12.4833759 7.87361588,12.3386625 7.6299562,12.2802401 Z M6.776055,11.7104668 C6.92005341,11.7104668 7.37292627,11.6646521 7.37298982,11.9651929 C7.37292627,12.2533248 6.92019641,12.2196648 6.776055,12.2196648 L6.776055,11.7104668 Z M6.77594378,13.0381662 L6.776055,12.4767265 C6.949066,12.4766788 7.49171741,12.4269872 7.49178891,12.7573192 C7.49186041,13.0741062 6.949066,13.0380391 6.77594378,13.0381662 Z" id="Shape" fill="#FFFFFF" fill-rule="nonzero"></path>
            <ellipse id="Oval" stroke="#FFFFFF" stroke-width="0.7" transform="translate(7.000000, 12.500000) rotate(-60.000000) translate(-7.000000, -12.500000) " cx="7" cy="12.5" rx="4.65" ry="2.15"></ellipse>
            <ellipse id="Oval" stroke="#FFFFFF" stroke-width="0.7" cx="7" cy="12.5" rx="4.65" ry="2.15"></ellipse>
            <ellipse id="Oval" stroke="#FFFFFF" stroke-width="0.7" transform="translate(7.000000, 12.500000) rotate(60.000000) translate(-7.000000, -12.500000) " cx="7" cy="12.5" rx="4.65" ry="2.15"></ellipse>
            <rect id="Rectangle" stroke="#FFFFFF" x="0.5" y="0.5" width="13" height="23" rx="2"></rect>
        </g>
    </g>
</svg>