<?xml version="1.0" encoding="utf-8"?>
<!-- Generator: Adobe Illustrator 24.2.0, SVG Export Plug-In . SVG Version: 6.00 Build 0)  -->
<svg version="1.1" id="Layer_1" xmlns="http://www.w3.org/2000/svg" xmlns:xlink="http://www.w3.org/1999/xlink" x="0px" y="0px"
	 viewBox="0 0 2000 2000" style="enable-background:new 0 0 2000 2000;" xml:space="preserve">
<style type="text/css">
	.st0{fill:#FFFFFF;}
</style>
<g>
	<g>
		<g>
			<path class="st0" d="M654.3,1238.3c-23.1,0-44.8-13.3-54.3-36.1c-32.5-76.4-49.1-157.3-49.1-241.1c0-311,232.3-573.9,540.4-611.9
				c32.5-3.9,61.7,19.2,65.6,51.3c3.9,32.5-19.2,61.7-51.3,65.6C857,497.3,669.2,709.8,669.2,961.3c0,67.6,13.3,133.2,39.6,194.7
				c12.7,29.9-1.3,64.7-31.2,77.3C669.9,1236.6,662.1,1238.3,654.3,1238.3z"/>
		</g>
	</g>
	<g>
		<g>
			<path class="st0" d="M781.7,911.4c-2.9,0-5.8-0.3-9.1-1.3c-19.2-4.9-30.9-24.4-25.7-43.9c50.7-197.6,229.1-335.4,433.2-335.4
				c104.3,0,205.7,36.7,285.6,103c15.3,12.7,17.2,35.4,4.5,50.7s-35.4,17.2-50.7,4.5c-66.9-55.6-152.1-86.4-239.5-86.4
				c-171.6,0-321.1,115.7-363.6,281.4C812.2,900.3,797.6,911.4,781.7,911.4z"/>
		</g>
	</g>
	<g>
		<g>
			<path class="st0" d="M920.8,1649c-3.6,0-7.1-0.7-10.4-1.6c-294.1-89.7-499.5-374.7-499.5-693.5c0-136.5,38.7-269.1,112.1-383.1
				c10.7-16.6,32.8-21.4,49.7-10.7c16.6,10.7,21.4,32.8,10.7,49.7c-66,102.7-100.7,221.9-100.7,344.5
				c0,287.3,184.6,544.3,448.4,624.9c18.8,5.8,29.6,26,23.7,44.8C950.3,1639,936,1649,920.8,1649z"/>
		</g>
	</g>
	<g>
		<g>
			<path class="st0" d="M1169,1554.5c-177.4,0-339.6-67.3-448.4-186.9c-17.2-19.2-15.9-48.7,3.2-66c19.2-17.2,48.7-15.9,66,3.2
				c96.2,105.6,243.7,162.5,404.9,155.7c26-1.3,47.4,18.8,48.7,44.8c1,25.7-18.8,47.4-44.8,48.7
				C1188.5,1554.5,1178.8,1554.5,1169,1554.5z"/>
		</g>
	</g>
	<g>
		<path class="st0" d="M1467.7,1229.2c-13.3-14.9-35.7-16.2-50.7-2.9c-29.6,26.3-62.4,47.1-98.5,62.7c-1.9,1-4.2,1.6-6.2,2.6
			c-4.9,1.9-10.1,4.2-15.3,5.8c-0.3,0.3-1,0.3-1.3,0.6c-6.2,2.3-12.3,4.2-18.5,6.2c-14,4.2-28.3,7.8-42.6,10.4c-0.3,0-0.3,0-0.7,0
			c-4.2,0.6-8.1,1.3-12.3,1.9c-2.3,0.3-4.2,0.7-6.5,1c-3.2,0.3-6.2,1-9.4,1.3c-5.5,0.7-11,1-16.6,1.3c-1.6,0-3.2,0-4.9,0.3
			c-4.9,0.3-9.4,0.3-14.3,0.3c-1.9,0-3.9,0-5.8,0c-38.3-0.3-76.4-6.5-112.8-18.2c-18.8-6.2-39,4.2-45.2,23.1
			c-6.2,18.8,4.2,39,23.1,45.2c41.9,13.6,85.5,20.8,129.7,21.4c0.3,0,0.6,0,0.6,0c2.3,0,4.9,0,7.1,0l0,0l0,0l0,0
			c7.1,0,14-0.3,21.1-0.7c2.3,0,4.5-0.3,6.8-0.3c4.5-0.3,9.1-0.7,14-1c5.8-0.6,12-1.3,17.9-1.9c2.3-0.3,4.5-0.6,6.8-1
			c4.9-0.6,9.7-1.6,14.6-2.6c0.6,0,1.3-0.3,2.3-0.3c23.4-4.5,46.5-10.7,68.9-18.8c1-0.3,1.9-0.7,2.9-1c5.5-1.9,11.4-4.2,16.9-6.8
			c2.9-1.3,5.5-2.3,8.4-3.6c1.9-1,3.9-1.6,5.8-2.6c0.7-0.3,1-0.6,1.3-0.6c39.6-18.2,76.4-41.9,109.5-71.2
			C1479.7,1266.5,1481,1244.1,1467.7,1229.2z"/>
	</g>
</g>
</svg>
