<?xml version="1.0" encoding="UTF-8"?>
<svg width="13px" height="24px" viewBox="0 0 13 24" version="1.1" xmlns="http://www.w3.org/2000/svg" xmlns:xlink="http://www.w3.org/1999/xlink">
    <!-- Generator: Sketch 52.6 (67491) - http://www.bohemiancoding.com/sketch -->
    <title>Group</title>
    <desc>Created with Sketch.</desc>
    <g id="Page-1" stroke="none" stroke-width="1" fill="none" fill-rule="evenodd">
        <g id="Group" fill="#FFFFFF">
            <path d="M2,0 L12,0 C12.5522847,-1.01453063e-16 13,0.44771525 13,1 L13,23 C13,23.5522847 12.5522847,24 12,24 L2,24 C1.44771525,24 1,23.5522847 1,23 L1,1 C1,0.44771525 1.44771525,1.01453063e-16 2,0 Z M3,2 L3,22 L11,22 L11,2 L3,2 Z" id="Combined-Shape"></path>
            <path d="M2.765625,16.2 L2.765625,13.3367188 L3.1171875,13.3367188 L3.1171875,14.9695313 L3.94921875,14.1257813 L4.40429688,14.1257813 L3.61132812,14.8953125 L4.484375,16.2 L4.05078125,16.2 L3.36523438,15.1394532 L3.1171875,15.3777344 L3.1171875,16.2 L2.765625,16.2 Z M6.18359375,15.5320313 L6.546875,15.5769532 C6.48958305,15.7891938 6.38346432,15.9539057 6.22851562,16.0710938 C6.07356693,16.1882819 5.87565225,16.246875 5.63476562,16.246875 C5.33137869,16.246875 5.0908212,16.1534515 4.91308594,15.9666016 C4.73535067,15.7797517 4.64648438,15.5177101 4.64648438,15.1804688 C4.64648438,14.8315087 4.73632723,14.5606781 4.91601562,14.3679688 C5.09570402,14.1752595 5.32877461,14.0789063 5.61523438,14.0789063 C5.89257951,14.0789063 6.11913975,14.1733064 6.29492188,14.3621094 C6.470704,14.5509125 6.55859375,14.8165348 6.55859375,15.1589844 C6.55859375,15.1798179 6.55794271,15.2110675 6.55664062,15.2527344 L5.00976562,15.2527344 C5.02278652,15.4806001 5.087239,15.6550776 5.203125,15.7761719 C5.319011,15.8972663 5.4635408,15.9578125 5.63671875,15.9578125 C5.76562564,15.9578125 5.87565059,15.9239587 5.96679688,15.85625 C6.05794316,15.7885414 6.13020807,15.6804695 6.18359375,15.5320313 Z M5.02929688,14.9636719 L6.1875,14.9636719 C6.17187492,14.7891919 6.12760453,14.6583338 6.0546875,14.5710938 C5.94270777,14.4356765 5.79752693,14.3679688 5.61914062,14.3679688 C5.45768148,14.3679688 5.32194065,14.4220047 5.21191406,14.5300782 C5.10188747,14.6381516 5.04101568,14.7826814 5.02929688,14.9636719 Z M8.40820312,15.5320313 L8.77148438,15.5769532 C8.71419242,15.7891938 8.60807369,15.9539057 8.453125,16.0710938 C8.29817631,16.1882819 8.10026162,16.246875 7.859375,16.246875 C7.55598807,16.246875 7.31543058,16.1534515 7.13769531,15.9666016 C6.95996005,15.7797517 6.87109375,15.5177101 6.87109375,15.1804688 C6.87109375,14.8315087 6.9609366,14.5606781 7.140625,14.3679688 C7.3203134,14.1752595 7.55338398,14.0789063 7.83984375,14.0789063 C8.11718889,14.0789063 8.34374912,14.1733064 8.51953125,14.3621094 C8.69531338,14.5509125 8.78320312,14.8165348 8.78320312,15.1589844 C8.78320312,15.1798179 8.78255209,15.2110675 8.78125,15.2527344 L7.234375,15.2527344 C7.2473959,15.4806001 7.31184838,15.6550776 7.42773438,15.7761719 C7.54362037,15.8972663 7.68815018,15.9578125 7.86132812,15.9578125 C7.99023502,15.9578125 8.10025996,15.9239587 8.19140625,15.85625 C8.28255254,15.7885414 8.35481744,15.6804695 8.40820312,15.5320313 Z M7.25390625,14.9636719 L8.41210938,14.9636719 C8.3964843,14.7891919 8.35221391,14.6583338 8.27929688,14.5710938 C8.16731715,14.4356765 8.02213631,14.3679688 7.84375,14.3679688 C7.68229086,14.3679688 7.54655003,14.4220047 7.43652344,14.5300782 C7.32649685,14.6381516 7.26562506,14.7826814 7.25390625,14.9636719 Z M9.21289062,16.9949219 L9.21289062,14.1257813 L9.53320312,14.1257813 L9.53320312,14.3953125 C9.60872434,14.2898433 9.69400994,14.2107425 9.7890625,14.1580079 C9.88411506,14.1052732 9.99934828,14.0789063 10.1347656,14.0789063 C10.3118498,14.0789063 10.4680983,14.1244788 10.6035156,14.215625 C10.738933,14.3067713 10.8411455,14.4353508 10.9101562,14.6013672 C10.979167,14.7673837 11.0136719,14.949348 11.0136719,15.1472657 C11.0136719,15.3595063 10.9755863,15.5505851 10.8994141,15.7205079 C10.8232418,15.8904306 10.7125658,16.0206376 10.5673828,16.1111329 C10.4221998,16.2016281 10.2695321,16.246875 10.109375,16.246875 C9.99218691,16.246875 9.88704474,16.2221357 9.79394531,16.1726563 C9.70084589,16.1231769 9.62434926,16.0606775 9.56445312,15.9851563 L9.56445312,16.9949219 L9.21289062,16.9949219 Z M9.53125,15.1746094 C9.53125,15.4415378 9.58528592,15.6388015 9.69335938,15.7664063 C9.80143283,15.8940111 9.9322909,15.9578125 10.0859375,15.9578125 C10.2421883,15.9578125 10.375976,15.8917325 10.4873047,15.7595704 C10.5986334,15.6274082 10.6542969,15.4226577 10.6542969,15.1453125 C10.6542969,14.8809883 10.5999354,14.6830736 10.4912109,14.5515625 C10.3824864,14.4200515 10.2526049,14.3542969 10.1015625,14.3542969 C9.95182217,14.3542969 9.81933651,14.4242832 9.70410156,14.5642579 C9.58886661,14.7042325 9.53125,14.907681 9.53125,15.1746094 Z M2.765625,18.9000001 L2.765625,16.0367188 L3.1171875,16.0367188 L3.1171875,17.6695313 L3.94921875,16.8257813 L4.40429688,16.8257813 L3.61132812,17.5953126 L4.484375,18.9000001 L4.05078125,18.9000001 L3.36523438,17.8394532 L3.1171875,18.0777345 L3.1171875,18.9000001 L2.765625,18.9000001 Z M6.18359375,18.2320313 L6.546875,18.2769532 C6.48958305,18.4891939 6.38346432,18.6539058 6.22851562,18.7710938 C6.07356693,18.8882819 5.87565225,18.9468751 5.63476562,18.9468751 C5.33137869,18.9468751 5.0908212,18.8534516 4.91308594,18.6666017 C4.73535067,18.4797518 4.64648438,18.2177101 4.64648438,17.8804688 C4.64648438,17.5315088 4.73632723,17.2606781 4.91601562,17.0679688 C5.09570402,16.8752595 5.32877461,16.7789063 5.61523438,16.7789063 C5.89257951,16.7789063 6.11913975,16.8733064 6.29492188,17.0621095 C6.470704,17.2509125 6.55859375,17.5165348 6.55859375,17.8589845 C6.55859375,17.8798179 6.55794271,17.9110676 6.55664062,17.9527345 L5.00976562,17.9527345 C5.02278652,18.1806002 5.087239,18.3550776 5.203125,18.476172 C5.319011,18.5972663 5.4635408,18.6578126 5.63671875,18.6578126 C5.76562564,18.6578126 5.87565059,18.6239588 5.96679688,18.5562501 C6.05794316,18.4885414 6.13020807,18.3804696 6.18359375,18.2320313 Z M5.02929688,17.663672 L6.1875,17.663672 C6.17187492,17.4891919 6.12760453,17.3583339 6.0546875,17.2710938 C5.94270777,17.1356765 5.79752693,17.0679688 5.61914062,17.0679688 C5.45768148,17.0679688 5.32194065,17.1220048 5.21191406,17.2300782 C5.10188747,17.3381517 5.04101568,17.4826815 5.02929688,17.663672 Z M6.97265625,19.6988282 L6.93359375,19.3687501 C7.01041705,19.3895835 7.07747367,19.4000001 7.13476562,19.4000001 C7.21289102,19.4000001 7.27539039,19.3869794 7.32226562,19.3609376 C7.36914086,19.3348958 7.40755193,19.2984378 7.4375,19.2515626 C7.45963553,19.2164062 7.49544246,19.1291675 7.54492188,18.9898438 C7.55143232,18.9703125 7.56184889,18.941667 7.57617188,18.9039063 L6.7890625,16.8257813 L7.16796875,16.8257813 L7.59960938,18.0269532 C7.65559924,18.1792977 7.70572895,18.3394524 7.75,18.507422 C7.79036479,18.3459628 7.83854139,18.1884123 7.89453125,18.0347657 L8.33789062,16.8257813 L8.68945312,16.8257813 L7.90039062,18.9351563 C7.81575479,19.1630221 7.75000023,19.3199215 7.703125,19.4058595 C7.64062469,19.5217455 7.56901082,19.6067056 7.48828125,19.6607423 C7.40755168,19.714779 7.31119848,19.741797 7.19921875,19.741797 C7.13151008,19.741797 7.05599,19.7274742 6.97265625,19.6988282 Z" id="keep-key" transform="translate(6.889648, 16.539258) rotate(-90.000000) translate(-6.889648, -16.539258) "></path>
            <rect id="Rectangle" x="0" y="2" width="2" height="3"></rect>
        </g>
    </g>
</svg>