<?xml version="1.0" encoding="UTF-8"?>
<svg width="913px" height="1171px" viewBox="0 0 913 1171" version="1.1" xmlns="http://www.w3.org/2000/svg" xmlns:xlink="http://www.w3.org/1999/xlink">
    <!-- Generator: Sketch 52.5 (67469) - http://www.bohemiancoding.com/sketch -->
    <title>Group</title>
    <desc>Created with Sketch.</desc>
    <g id="Page-1" stroke="none" stroke-width="1" fill="none" fill-rule="evenodd">
        <g id="Group">
            <path d="M113.635459,931.071808 L538.125084,194.986133 C554.607376,166.405036 555.080356,131.318901 539.374489,102.303891 L501.82503,32.9350365 C485.524811,2.82202 447.899449,-8.375465 417.786433,7.9247538 C407.691754,13.3890181 399.312192,21.5484066 393.581142,31.4940494 C163.622709,430.563099 40.0563609,646.426466 22.8820977,679.08415 C-4.87707596,731.869547 -7.67131428,783.049472 18.1584915,852.493188 C26.853273,875.869203 35.8185617,900.108065 45.0543576,925.209773 L45.0543581,925.209773 C52.3011839,944.905715 74.1426128,954.997718 93.838555,947.750892 C102.186205,944.6795 109.191925,938.777113 113.635459,931.071808 Z" id="Path" fill="#FFFFFF"></path>
            <path d="M443.984545,498.334994 L541.729339,334.673937 C563.534586,298.163863 610.808495,286.243244 647.31857,308.048491 C658.890433,314.959661 668.445438,324.787312 675.028386,336.548991 L758.189068,485.131231 C779.498224,523.204056 765.908585,571.342663 727.83576,592.651819 C716.046584,599.250157 702.762218,602.714871 689.252121,602.714871 L503.223589,602.714871 C465.115941,602.714871 434.223589,571.822519 434.223589,533.714871 C434.223589,521.256646 437.596568,509.030839 443.984545,498.334994 Z" id="Path-5" fill="#FFFFFF"></path>
            <path d="M198.363218,918.643411 L277.8487,780.187516 C300.946067,739.954174 352.28575,726.062722 392.519092,749.160089 C399.002529,752.882134 404.960079,757.45303 410.233887,762.751664 L606.59436,960.03647 C648.390397,1002.02925 648.230902,1069.95352 606.238117,1111.74955 C605.341001,1112.64246 604.428152,1113.51943 603.499999,1114.38004 L571.420131,1144.1253 C541.54876,1171.82278 497.862054,1178.63212 460.978203,1161.33961 L242.638261,1058.97375 C192.632818,1035.52935 171.100841,975.986485 194.545245,925.981041 C195.716159,923.483555 196.989906,921.035585 198.363218,918.643411 Z" id="Path-6" fill="#FFFFFF"></path>
            <path d="M530.879201,691.824159 C522.264699,691.824159 514.014041,695.297399 507.993109,701.458408 C495.640846,714.098047 495.873811,734.357987 508.51345,746.71025 L674.547588,908.969417 C706.791999,940.480715 758.427539,940.050171 790.142013,908.005576 L875.968891,821.28531 C890.051778,807.055833 897.951253,787.844291 897.951253,767.824159 C897.951253,725.850518 863.924894,691.824159 821.951253,691.824159 L530.879201,691.824159 Z" id="Path-7" stroke="#FFFFFF" stroke-width="30"></path>
        </g>
    </g>
</svg>