<svg width="53" height="150" viewBox="0 0 53 150" fill="none" xmlns="http://www.w3.org/2000/svg">
<g clip-path="url(#clip0_1925_21598)">
<path d="M1 8.25C1 6.12903 2.34482 4.34482 4.78472 3.03773C7.22622 1.72978 10.6151 1 14.25 1H38.25C41.8849 1 45.2738 1.72978 47.7153 3.03773C50.1552 4.34482 51.5 6.12903 51.5 8.25V139.25C51.5 142.366 49.9605 144.766 47.5301 146.424C45.0739 148.1 41.7193 149 38.25 149H14.25C10.7807 149 7.42612 148.1 4.96989 146.424C2.53951 144.766 1 142.366 1 139.25V8.25Z" stroke="white" stroke-width="2"/>
<line x1="24" y1="6.5" x2="28.5" y2="6.5" stroke="white" stroke-width="2" stroke-linecap="round" stroke-linejoin="round"/>
<rect x="16.5" y="70.5" width="20" height="20.5" rx="7" stroke="white" stroke-width="2"/>
<rect x="5.5" y="76" width="5.5" height="10" rx="2" stroke="white" stroke-width="2"/>
<mask id="path-5-inside-1_1925_21598" fill="white">
<rect x="4.75" y="100" width="12" height="7.5" rx="1.5"/>
</mask>
<rect x="4.75" y="100" width="12" height="7.5" rx="1.5" stroke="white" stroke-width="4" mask="url(#path-5-inside-1_1925_21598)"/>
<mask id="path-6-inside-2_1925_21598" fill="white">
<rect x="20.25" y="100" width="12" height="7.5" rx="1.5"/>
</mask>
<rect x="20.25" y="100" width="12" height="7.5" rx="1.5" stroke="white" stroke-width="4" mask="url(#path-6-inside-2_1925_21598)"/>
<mask id="path-7-inside-3_1925_21598" fill="white">
<rect x="35.75" y="100" width="12" height="7.5" rx="1.5"/>
</mask>
<rect x="35.75" y="100" width="12" height="7.5" rx="1.5" stroke="white" stroke-width="4" mask="url(#path-7-inside-3_1925_21598)"/>
<mask id="path-8-inside-4_1925_21598" fill="white">
<rect x="4.75" y="110" width="12" height="7.5" rx="1.5"/>
</mask>
<rect x="4.75" y="110" width="12" height="7.5" rx="1.5" stroke="white" stroke-width="4" mask="url(#path-8-inside-4_1925_21598)"/>
<mask id="path-9-inside-5_1925_21598" fill="white">
<rect x="20.25" y="110" width="12" height="7.5" rx="1.5"/>
</mask>
<rect x="20.25" y="110" width="12" height="7.5" rx="1.5" stroke="white" stroke-width="4" mask="url(#path-9-inside-5_1925_21598)"/>
<mask id="path-10-inside-6_1925_21598" fill="white">
<rect x="35.75" y="110" width="12" height="7.5" rx="1.5"/>
</mask>
<rect x="35.75" y="110" width="12" height="7.5" rx="1.5" stroke="white" stroke-width="4" mask="url(#path-10-inside-6_1925_21598)"/>
<mask id="path-11-inside-7_1925_21598" fill="white">
<rect x="4.75" y="120" width="12" height="7.5" rx="1.5"/>
</mask>
<rect x="4.75" y="120" width="12" height="7.5" rx="1.5" stroke="white" stroke-width="4" mask="url(#path-11-inside-7_1925_21598)"/>
<mask id="path-12-inside-8_1925_21598" fill="white">
<rect x="20.25" y="120" width="12" height="7.5" rx="1.5"/>
</mask>
<rect x="20.25" y="120" width="12" height="7.5" rx="1.5" stroke="white" stroke-width="4" mask="url(#path-12-inside-8_1925_21598)"/>
<mask id="path-13-inside-9_1925_21598" fill="white">
<rect x="35.75" y="120" width="12" height="7.5" rx="1.5"/>
</mask>
<rect x="35.75" y="120" width="12" height="7.5" rx="1.5" stroke="white" stroke-width="4" mask="url(#path-13-inside-9_1925_21598)"/>
<mask id="path-14-inside-10_1925_21598" fill="white">
<rect x="4.75" y="130" width="12" height="7.5" rx="1.5"/>
</mask>
<rect x="4.75" y="130" width="12" height="7.5" rx="1.5" stroke="white" stroke-width="4" mask="url(#path-14-inside-10_1925_21598)"/>
<mask id="path-15-inside-11_1925_21598" fill="white">
<rect x="20.25" y="130" width="12" height="7.5" rx="1.5"/>
</mask>
<rect x="20.25" y="130" width="12" height="7.5" rx="1.5" stroke="white" stroke-width="4" mask="url(#path-15-inside-11_1925_21598)"/>
<mask id="path-16-inside-12_1925_21598" fill="white">
<rect x="35.75" y="130" width="12" height="7.5" rx="1.5"/>
</mask>
<rect x="35.75" y="130" width="12" height="7.5" rx="1.5" stroke="white" stroke-width="4" mask="url(#path-16-inside-12_1925_21598)"/>
<rect x="41.5" y="76" width="5.5" height="10" rx="2" stroke="white" stroke-width="2"/>
<rect x="7.5" y="11.5" width="37.5" height="50" rx="1.5" stroke="white" stroke-width="2"/>
</g>
<defs>
<clipPath id="clip0_1925_21598">
<rect width="52.5" height="150" fill="white"/>
</clipPath>
</defs>
</svg>
