<svg width="1035" height="788" viewBox="0 0 1035 788" fill="none" xmlns="http://www.w3.org/2000/svg">
<path d="M248.894 562.73V382.202C248.845 379.971 248.071 377.818 246.688 376.067C245.305 374.316 243.389 373.064 241.23 372.5C239.072 371.937 236.788 372.092 234.726 372.943C232.663 373.793 230.935 375.293 229.801 377.215L143.028 527.964C142.172 529.537 141.73 531.302 141.745 533.093V562.73C141.745 565.413 142.811 567.987 144.709 569.884C146.606 571.781 149.179 572.847 151.862 572.847H238.92C241.579 572.809 244.115 571.727 245.982 569.834C247.848 567.941 248.895 565.389 248.894 562.73V562.73Z" fill="#EEEEEE"/>
<path d="M463.762 562.73V10.1732C463.744 7.93076 462.991 5.75624 461.619 3.98241C460.247 2.20858 458.331 0.933155 456.165 0.351322C454 -0.23051 451.703 -0.0866974 449.627 0.760752C447.551 1.6082 445.809 3.1126 444.669 5.04373L357.611 155.793C356.755 157.366 356.313 159.131 356.329 160.922V562.73C356.329 565.413 357.394 567.987 359.292 569.884C361.189 571.781 363.762 572.847 366.445 572.847H453.503C454.844 572.866 456.175 572.618 457.418 572.118C458.662 571.618 459.794 570.876 460.749 569.935C461.704 568.993 462.462 567.872 462.979 566.635C463.496 565.398 463.762 564.071 463.762 562.73V562.73Z" fill="#EEEEEE"/>
<path d="M678.629 562.73V161.207C678.595 159.405 678.104 157.64 677.204 156.078L590.146 5.32869C589.052 3.36858 587.338 1.82787 585.272 0.949116C583.207 0.0703588 580.908 -0.0965399 578.737 0.474695C576.566 1.04593 574.647 2.32285 573.282 4.10444C571.917 5.88604 571.183 8.07111 571.195 10.3157V562.73C571.195 565.413 572.261 567.987 574.159 569.884C576.056 571.781 578.629 572.847 581.312 572.847H668.37C669.711 572.866 671.042 572.618 672.285 572.118C673.529 571.618 674.661 570.876 675.616 569.935C676.571 568.993 677.328 567.872 677.846 566.635C678.363 565.398 678.629 564.071 678.629 562.73Z" fill="#EEEEEE"/>
<path d="M893.497 562.73V533.378C893.463 531.576 892.973 529.811 892.073 528.249L805.014 377.5C803.92 375.539 802.206 373.999 800.14 373.12C798.075 372.241 795.776 372.074 793.605 372.646C791.435 373.217 789.516 374.494 788.15 376.275C786.785 378.057 786.051 380.242 786.064 382.487V562.73C786.064 565.413 787.129 567.986 789.027 569.884C790.924 571.781 793.497 572.847 796.18 572.847H883.951C886.534 572.701 888.963 571.571 890.739 569.689C892.514 567.808 893.502 565.317 893.497 562.73V562.73Z" fill="#EEEEEE"/>
<path d="M983.689 685.695C982.793 684.143 981.506 682.852 979.956 681.952C978.406 681.052 976.648 680.574 974.855 680.565H60.5285C58.7392 680.588 56.986 681.072 55.4384 681.971C53.8909 682.87 52.6014 684.152 51.6945 685.695L1.39727 772.753C0.488232 774.298 0.00602588 776.057 5.61108e-05 777.85C-0.00591366 779.642 0.464572 781.404 1.3633 782.955C2.26203 784.506 3.55676 785.791 5.11496 786.677C6.67316 787.563 8.43885 788.02 10.2313 787.999H1024.44C1026.23 788.02 1028 787.563 1029.56 786.677C1031.11 785.791 1032.41 784.506 1033.31 782.955C1034.21 781.404 1034.68 779.642 1034.67 777.85C1034.67 776.057 1034.18 774.298 1033.27 772.753L983.689 685.695Z" fill="#EEEEEE"/>
</svg>
