<?xml version="1.0" encoding="UTF-8"?>
<svg width="979px" height="317px" viewBox="0 0 979 317" version="1.1" xmlns="http://www.w3.org/2000/svg" xmlns:xlink="http://www.w3.org/1999/xlink">
    <!-- Generator: Sketch 52.5 (67469) - http://www.bohemiancoding.com/sketch -->
    <title>Combined Shape</title>
    <desc>Created with Sketch.</desc>
    <g id="Page-1" stroke="none" stroke-width="1" fill="none" fill-rule="evenodd">
        <path d="M156,0 L823,0 C909.156421,-1.58266778e-14 979,69.843579 979,156 L979,161 C979,247.156421 909.156421,317 823,317 L156,317 C69.843579,317 1.05511185e-14,247.156421 0,161 L0,156 C-1.05511185e-14,69.843579 69.843579,1.58266778e-14 156,0 Z M161,29 C89.2029825,29 31,87.2029825 31,159 C31,230.797017 89.2029825,289 161,289 L429,289 L429,29 L161,29 Z M831.999883,113.999905 L831.999883,113.999891 C831.999878,113.999891 831.999873,113.999891 831.999868,113.999891 C829.238445,113.999894 826.999871,116.238474 826.999875,118.999897 L826.999993,198.017083 C826.999997,200.771826 829.228161,203.007623 831.982888,203.017047 L843.187053,203.055378 C843.192755,203.055398 843.198457,203.055407 843.204159,203.055407 C845.965583,203.055407 848.204159,200.816831 848.204159,198.055407 L848.204159,179.537106 L865.716795,179.537106 L875.785379,201.6186 C876.876677,204.011933 879.635716,205.150475 882.097268,204.223257 L892.991476,200.119624 C893.013662,200.111267 893.035789,200.102753 893.057853,200.094081 C895.627917,199.084016 896.892546,196.181748 895.882481,193.611684 C892.773525,185.70109 889.664569,177.790496 886.555613,169.879902 C892.185204,164.202706 895,157.357951 895,149.345634 L894.99995,147 C894.99995,128.774623 880.225377,114.000028 862,114 L831.999883,113.999905 Z M848,137 L862.5,137 C868.29899,137 873,141.70101 873,147.5 C873,153.29899 868.29899,158 862.5,158 L848,158 L848,137 Z M662,114 C659.238576,114 657,116.238576 657,119 L657,198 C657,200.761424 659.238576,203 662,203 L674.170943,203 C676.932366,203 679.170943,200.761424 679.170943,198 L679.170943,154.957254 L713.127607,200.969013 C714.0702,202.246239 715.563277,203 717.150661,203 L729,203 C731.761424,203 734,200.761424 734,198 L734,119 C734,116.238576 731.761424,114 729,114 L718.040043,114 C715.278619,114 713.040043,116.238576 713.040043,119 L713.040043,165.338181 L677.873317,116.094221 C676.934789,114.78 675.41929,114 673.804356,114 L662,114 Z M539,114 C536.238576,114 534,116.238576 534,119 L534,198 C534,200.761424 536.238576,203 539,203 L551,203 C553.761424,203 556,200.761424 556,198 L556,119 C556,116.238576 553.761424,114 551,114 L539,114 Z M503.262848,140.028308 C509.853954,140.028308 515.895739,131.127694 515.895739,126.984292 C515.895739,122.840891 505.115264,115.195438 492.409258,114.116459 C479.703253,113.03748 459.283371,119.312587 459.283371,138.947895 C459.283371,158.583202 472.483456,163.533551 489.270034,167.096248 C506.056612,170.658944 499.315382,184.51748 489.270034,184.51748 C479.224686,184.51748 476.216389,172.645285 469.260936,172.645285 C462.305484,172.645285 458,179.697941 458,184.51748 C458,189.33702 469.05765,203.072542 487.616954,203.072542 C506.176257,203.072542 506.584886,197.821623 513.081718,193.656034 C519.578551,189.490444 520.540068,177.806872 520.540068,171.553044 C520.540068,165.299217 517.463574,153.055938 498.388344,150.007068 C479.313115,146.958198 479.780863,141.81047 479.780863,138.947895 C479.780863,136.085319 482.965032,132.937574 487.616954,132.937574 C490.191284,132.937574 492.605061,133.248477 495.439901,135.18808 C497.727733,136.753419 500.319199,140.028308 503.262848,140.028308 Z M751,114 C748.238576,114 746,116.238576 746,119 L746,198 C746,200.761424 748.238576,203 751,203 L809,203 C811.761424,203 814,200.761424 814,198 L814,186.269675 C814,183.508251 811.761424,181.269675 809,181.269675 L766.940658,181.269675 L766.940658,168.887471 L795.755439,168.887471 C798.516863,168.887471 800.755439,166.648895 800.755439,163.887471 L800.755439,152.454561 C800.755439,149.693138 798.516863,147.454561 795.755439,147.454561 C786.150512,147.454561 776.545585,147.454561 766.940658,147.454561 C766.940658,147.454561 766.940658,143.778346 766.940658,136.425915 L809,136.425915 C811.761424,136.425915 814,134.187339 814,131.425915 L814,119 C814,116.238576 811.761424,114 809,114 L751,114 Z M641.783446,125.668238 C634.416892,117.889412 624.016092,113.999999 610.581044,113.999999 C589.028536,113.999999 568.328762,132.635402 568.328762,159.170297 C568.328762,185.705192 582.507353,203.072542 610.581044,203.072542 C628.504609,203.072542 640.020783,198.521629 645.129564,189.419802 C645.549098,188.672365 645.769441,187.829627 645.769441,186.972498 L645.769441,154.947756 C645.769441,152.186332 643.530865,149.947756 640.769441,149.947756 L612.049101,149.947756 C609.287678,149.947756 607.049101,152.186332 607.049101,154.947756 L607.049101,163.43797 C607.049101,166.199394 609.287678,168.43797 612.049101,168.43797 L623.87688,168.43797 L623.87688,179.198669 C616.191086,181.440377 610.581827,182.04082 607.049101,180.999999 C597.756771,178.262266 589.508296,168.953571 589.508296,159.170297 C589.508296,136.1268 608.971005,135.727078 613.236528,135.727078 C620.884347,135.727078 626.136505,141.640744 631.195223,141.640744 C636.253941,141.640744 638.810478,139.103309 641.013869,135.727078 C642.115485,134.039084 642.814796,132.045705 643.111801,129.746941 C643.304321,128.256847 642.816557,126.759167 641.783446,125.668238 Z M128.262848,140.028308 C125.319199,140.028308 122.727733,136.753419 120.439901,135.18808 C117.605061,133.248477 115.191284,132.937574 112.616954,132.937574 C107.965032,132.937574 104.780863,136.085319 104.780863,138.947895 C104.780863,141.81047 104.313115,146.958198 123.388344,150.007068 C142.463574,153.055938 145.540068,165.299217 145.540068,171.553044 C145.540068,177.806872 144.578551,189.490444 138.081718,193.656034 C131.584886,197.821623 131.176257,203.072542 112.616954,203.072542 C94.0576499,203.072542 83,189.33702 83,184.51748 C83,179.697941 87.3054835,172.645285 94.2609364,172.645285 C101.216389,172.645285 104.224686,184.51748 114.270034,184.51748 C124.315382,184.51748 131.056612,170.658944 114.270034,167.096248 C97.4834556,163.533551 84.2833713,158.583202 84.2833713,138.947895 C84.2833713,119.312587 104.703253,113.03748 117.409258,114.116459 C130.115264,115.195438 140.895739,122.840891 140.895739,126.984292 C140.895739,131.127694 134.853954,140.028308 128.262848,140.028308 Z M164,114 L222,114 C224.761424,114 227,116.238576 227,119 L227,131.425915 C227,134.187339 224.761424,136.425915 222,136.425915 L179.940658,136.425915 C179.940658,143.778346 179.940658,147.454561 179.940658,147.454561 C189.545585,147.454561 199.150512,147.454561 208.755439,147.454561 C211.516863,147.454561 213.755439,149.693138 213.755439,152.454561 L213.755439,163.887471 C213.755439,166.648895 211.516863,168.887471 208.755439,168.887471 L179.940658,168.887471 L179.940658,181.269675 L222,181.269675 C224.761424,181.269675 227,183.508251 227,186.269675 L227,198 C227,200.761424 224.761424,203 222,203 L164,203 C161.238576,203 159,200.761424 159,198 L159,119 C159,116.238576 161.238576,114 164,114 Z M244,114 L302,114 C304.761424,114 307,116.238576 307,119 L307,131.425915 C307,134.187339 304.761424,136.425915 302,136.425915 L259.940658,136.425915 C259.940658,143.778346 259.940658,147.454561 259.940658,147.454561 C269.545585,147.454561 279.150512,147.454561 288.755439,147.454561 C291.516863,147.454561 293.755439,149.693138 293.755439,152.454561 L293.755439,163.887471 C293.755439,166.648895 291.516863,168.887471 288.755439,168.887471 L259.940658,168.887471 L259.940658,181.269675 L302,181.269675 C304.761424,181.269675 307,183.508251 307,186.269675 L307,198 C307,200.761424 304.761424,203 302,203 L244,203 C241.238576,203 239,200.761424 239,198 L239,119 C239,116.238576 241.238576,114 244,114 Z M320,118.999999 C320.000001,116.238577 322.238576,114.000003 324.999998,114 C343.507074,114.000004 353.388348,114.000006 354.643817,114.000006 C354.643821,114.000006 354.643824,114.000006 354.643828,114.000006 C376.931926,114.000012 394.999995,132.06809 394.99999,154.356189 L394.999989,158.325508 L394.999999,161.815331 C394.999999,183.648358 377.843841,201.628074 356.03479,202.65101 C349.925738,203.071087 339.542342,203.11193 324.884602,202.773539 C322.168865,202.710843 320.000001,200.491331 320.000001,197.774871 L320,119 Z M340,133.999999 L340,180.999999 L351.5,180.999999 C364.478692,180.999999 375,170.47869 375,157.499999 C375,144.521307 364.478692,133.999999 351.5,133.999999 L340,133.999999 Z" id="Combined-Shape" fill="#FFFFFF"></path>
    </g>
</svg>