<?xml version="1.0" encoding="UTF-8" standalone="no"?>
<svg
   xmlns:dc="http://purl.org/dc/elements/1.1/"
   xmlns:cc="http://creativecommons.org/ns#"
   xmlns:rdf="http://www.w3.org/1999/02/22-rdf-syntax-ns#"
   xmlns:svg="http://www.w3.org/2000/svg"
   xmlns="http://www.w3.org/2000/svg"
   xml:space="preserve"
   style="enable-background:new 0 0 256 256;"
   viewBox="0 0 256 256"
   y="0px"
   x="0px"
   id="Ebene_1"
   version="1.1"><metadata
   id="metadata929"><rdf:RDF><cc:Work
       rdf:about=""><dc:format>image/svg+xml</dc:format><dc:type
         rdf:resource="http://purl.org/dc/dcmitype/StillImage" /><dc:title></dc:title></cc:Work></rdf:RDF></metadata><defs
   id="defs927">
	
	
	
	
	
	
	
	
	
	
</defs>
<style
   id="style900"
   type="text/css">
	.st0{fill:none;stroke:#191919;stroke-width:2;}
</style>

<path
   d="M 82.017578 19.800781 C 78.21451 19.800781 75.152344 22.700781 75.152344 26.300781 L 75.152344 199.09961 C 75.152344 202.69961 78.21451 205.59961 82.017578 205.59961 L 108.19922 205.59961 L 108.19922 232.40039 L 148.90039 232.40039 L 148.90039 205.59961 L 174.98242 205.59961 C 178.78548 205.59961 181.84766 202.69961 181.84766 199.09961 L 181.84766 26.300781 C 181.84766 22.700781 178.78548 19.800781 174.98242 19.800781 L 82.017578 19.800781 z M 126.11133 64.591797 L 126.11133 98.091797 L 105.16992 107.20117 L 104.86523 107.33398 L 104.86523 93.923828 L 115.31445 89.429688 L 115.31445 69.296875 L 126.11133 64.591797 z M 130.86719 64.701172 L 141.68555 69.427734 L 141.68555 89.539062 L 152.13477 94.054688 L 152.13477 107.10938 L 152.13477 107.44336 L 130.86719 98.201172 L 130.86719 64.701172 z M 128.5332 102.24805 L 149.89062 111.51758 L 128.59766 120.76758 L 128.51172 120.80664 L 107.2207 111.56055 L 128.5332 102.24805 z M 114.59961 205.59961 L 142.5 205.59961 L 142.5 226 L 114.59961 226 L 114.59961 205.59961 z "
   style="fill:#ffffff;stroke:none;stroke-width:1;stroke-miterlimit:4;stroke-dasharray:none"
   id="path902" /></svg>
