<svg width="30" height="30" viewBox="0 0 30 30" fill="none" xmlns="http://www.w3.org/2000/svg">
<path fill-rule="evenodd" clip-rule="evenodd" d="M10.623 7.61511C10.0663 7.61511 9.54762 7.89731 9.24521 8.36468L5.76328 13.7458C5.42818 14.2637 5.41179 14.9258 5.72085 15.4596L9.25616 21.566C9.54956 22.0728 10.0908 22.3849 10.6764 22.3849H22.8589C23.7653 22.3849 24.5 21.6502 24.5 20.7438V9.2562C24.5 8.34985 23.7653 7.61511 22.8589 7.61511H10.623ZM12.6446 11.9702C12.3242 11.6498 12.3242 11.1302 12.6446 10.8098C12.9651 10.4894 13.4846 10.4894 13.8051 10.8098L16.7122 13.7169L19.6072 10.8219C19.9276 10.5015 20.4472 10.5015 20.7676 10.8219C21.088 11.1423 21.088 11.6619 20.7676 11.9823L17.8726 14.8773L20.7676 17.7723C21.088 18.0928 21.088 18.6123 20.7676 18.9328C20.4472 19.2532 19.9276 19.2532 19.6072 18.9328L16.7122 16.0378L13.8051 18.9449C13.4846 19.2653 12.9651 19.2653 12.6446 18.9449C12.3242 18.6244 12.3242 18.1049 12.6446 17.7844L15.5518 14.8773L12.6446 11.9702Z" fill="white"/>
</svg>
