<svg width="30" height="30" viewBox="0 0 30 30" fill="none" xmlns="http://www.w3.org/2000/svg">
<path fill-rule="evenodd" clip-rule="evenodd" d="M24 15C24 19.9706 19.9706 24 15 24C10.0294 24 6 19.9706 6 15C6 10.0294 10.0294 6 15 6C19.9706 6 24 10.0294 24 15ZM14.5002 14.9851C14.4962 15.118 14.545 15.2521 14.6464 15.3535L17.4748 18.1819C17.6701 18.3772 17.9867 18.3772 18.1819 18.1819C18.3772 17.9867 18.3772 17.6701 18.1819 17.4748L15.4999 14.7929V9.96997C15.4999 9.69383 15.2761 9.46997 14.9999 9.46997C14.7238 9.46997 14.4999 9.69383 14.4999 9.96997V14.97C14.4999 14.975 14.5 14.9801 14.5002 14.9851Z" fill="white"/>
</svg>
