<?xml version="1.0" encoding="UTF-8"?>
<svg width="60px" height="68px" viewBox="0 0 60 68" version="1.1" xmlns="http://www.w3.org/2000/svg" xmlns:xlink="http://www.w3.org/1999/xlink">
    <title>cobo vault</title>
    <g stroke="none" stroke-width="1" fill="none" fill-rule="evenodd">
        <path d="M30.0738674,-7.10542736e-15 L30.2736352,0.0100991665 C30.7254326,0.0343212694 31.0769391,0.0631450383 31.3281548,0.0965704735 L31.3804517,0.1038035 L31.8649753,0.17561684 C36.9319185,0.952071589 41.821392,2.5013818 46.3850646,4.753343 L46.6430368,4.88156246 C46.9063677,5.0133893 47.1267969,5.20386128 47.2924976,5.43305424 L47.3269403,5.48264097 C47.3424882,5.50573692 47.3574953,5.52919262 47.3719488,5.55298838 C47.4099508,5.61539471 47.4440593,5.6802005 47.4741305,5.74699869 C47.5656453,5.95028452 47.6197679,6.172021 47.6299651,6.40213178 C47.8899316,12.2685515 52.286904,17.1266386 58.0488115,18.0129712 L58.2238297,18.038611 L58.2817332,18.0476865 C59.2611115,18.2152839 59.9835319,19.0584925 60,20.0530799 L60,20.1117557 L59.9958952,20.4676641 C59.6924285,40.9107287 48.1373921,59.2641989 31.3403745,67.5377731 L30.8297756,67.7853939 C30.35759,68.0555235 29.7815731,68.0715218 29.2951218,67.8280173 L29.2099724,67.7853939 C12.0398836,59.8491008 0.545462249,41.7020655 0.0196516327,21.0871799 L0.007080828,20.461739 L0.000118397463,19.8683363 C-0.010301186,18.9540489 0.668175681,18.178338 1.57481541,18.0681045 C7.45152038,17.3535872 12.012147,12.50667 12.3637621,6.58119331 L12.3731258,6.40130642 L12.3770141,6.33883862 C12.4250088,5.73713563 12.773451,5.19996567 13.3029831,4.91133472 L13.3584033,4.88237048 C18.0551525,2.53111815 23.1000436,0.927000707 28.3317603,0.146326634 L28.6226025,0.1038035 C28.9437085,0.0576037052 29.4274634,0.0230025384 30.0738674,-7.10542736e-15 Z M31.6105543,24 C30.9693829,24 30.4380274,24.493641 30.3970202,25.1281746 L30.3970202,25.1281746 L30.3970202,32.6399226 C30.3980627,34.8067067 31.7186325,36.7588793 33.7404942,37.5818439 C35.7627035,38.405153 38.0858636,37.9363147 39.6229373,36.3954521 L39.6229373,36.3954521 L45.5022526,30.5627035 C46.4996303,29.5719767 48.0638104,29.4173048 49.2391174,30.1930756 C50.414077,30.9688463 50.8724537,32.4597591 50.3341477,33.753629 C49.7958418,35.0471543 48.4106337,35.7839987 47.025078,35.5132368 C45.6402174,35.2428194 44.6407547,34.039548 44.638322,32.6399226 L44.638322,32.6399226 L44.638322,32.5551803 L42.582751,34.5924397 C43.5245257,36.9920928 46.0579345,38.3848287 48.6101092,37.9063448 C51.1619364,37.4282055 53.0069113,35.2142275 52.9999805,32.6399226 L52.9999805,32.6399226 L52.9898829,32.6347554 C52.9888404,30.4745164 51.6759161,28.5271665 49.6627423,27.6993792 C47.649221,26.8726253 45.3316211,27.3280289 43.7889872,28.8540788 L43.7889872,28.8540788 L41.0651384,31.5541192 C40.7051094,29.8193139 39.5002633,28.3738725 37.8495511,27.6962788 C36.1984915,27.0186851 34.3159846,27.1967817 32.8240883,28.1716623 L32.8240883,28.1716623 L32.8240883,25.1281746 C32.7827336,24.493641 32.2517256,24 31.6105543,24 Z M26.2650271,27.6993792 C24.2490731,26.8715918 21.9290406,27.3294068 20.3867542,28.8589015 L20.3867542,28.8589015 L14.4824175,34.7167972 C13.3234438,35.8618514 11.4482348,35.85944 10.2923888,34.71163 C9.13619528,33.564509 9.13619528,31.7053462 10.2923888,30.5582252 C11.4482348,29.4104152 13.3234438,29.4080039 14.4824175,30.5527135 C14.7875386,30.8579235 15.2334047,30.9788362 15.6532068,30.8689469 C16.072314,30.7600909 16.4010663,30.436968 16.5150523,30.0222131 C16.6290383,29.6078027 16.5108821,29.1644559 16.2061085,28.8589015 C14.6641696,27.3300958 12.3444847,26.8722808 10.3295733,27.6990347 C8.31396687,28.5264775 7,30.4755498 7,32.6371667 C7,34.7994726 8.31396687,36.7485449 10.3295733,37.5756433 C12.3444847,38.4027417 14.6641696,37.9445822 16.2061085,36.4157765 L16.2061085,36.4157765 L22.115658,30.5627035 C23.1175534,29.5688764 24.6876413,29.4155824 25.8664235,30.1965204 C27.0445107,30.9771138 27.5025399,32.4745718 26.9593687,33.7722309 C26.4161975,35.0698901 25.0236915,35.805701 23.6336181,35.5304609 C22.2442398,35.2552207 21.244082,34.0443708 21.2461671,32.6399226 L21.2461671,32.6399226 L21.2461671,32.5551803 L19.1909436,34.5924397 C20.136541,36.9848587 22.6664746,38.3713939 25.2134365,37.8935991 C27.7603985,37.4158042 29.6039833,35.2090603 29.6029412,32.6399226 L29.6029412,32.6399226 L29.5928627,32.6399226 C29.5939053,30.4772722 28.2802859,28.5271665 26.2650271,27.6993792 Z M33.6960119,30.5637369 C34.5432616,29.7218259 35.8190014,29.4700104 36.927585,29.9240361 C38.035821,30.3790952 38.7586591,31.4507749 38.7586591,32.6399226 C38.7586591,34.2613937 37.4346142,35.5755878 35.7988454,35.5786926 C34.599212,35.5807551 33.5163449,34.8659574 33.0562306,33.7680972 C32.5957688,32.6698924 32.8480671,31.404959 33.6960119,30.5637369 Z" id="cobo-vault" fill="#fff"></path>
    </g>
</svg>