<?xml version="1.0" encoding="iso-8859-1"?>
<!-- Generator: Adobe Illustrator 19.0.0, SVG Export Plug-In . SVG Version: 6.00 Build 0)  -->
<svg version="1.1" id="Layer_1" xmlns="http://www.w3.org/2000/svg" xmlns:xlink="http://www.w3.org/1999/xlink" x="0px" y="0px"
	 viewBox="0 0 502 502" style="enable-background:new 0 0 502 502;" xml:space="preserve">
<g>
	<polygon style="fill:#D1DCEB;" points="390.089,126.779 303.615,126.779 303.615,80.468 233.148,10 41.444,10 41.444,375.221 
		198.385,375.221 198.385,492 460.556,492 460.556,197.247 	"/>
	<polygon style="fill:#4EC9DC;" points="233.148,80.468 233.148,10 303.615,80.468 	"/>
	<polygon style="fill:#4EC9DC;" points="390.089,197.247 390.089,126.779 460.556,197.247 	"/>
	<g>
		<path d="M467.628,190.176l-70.469-70.468c-1.876-1.875-4.419-2.929-7.071-2.929h-76.473V80.468c0-2.652-1.054-5.196-2.929-7.071
			L240.219,2.929C238.342,1.054,235.799,0,233.146,0H41.444c-5.522,0-10,4.477-10,10v365.221c0,5.523,4.478,10,10,10h146.941V492
			c0,5.523,4.478,10,10,10h262.172c5.522,0,10-4.477,10-10V197.247C470.557,194.595,469.503,192.051,467.628,190.176z
			 M436.414,187.247h-36.326v-36.326l18.163,18.163L436.414,187.247z M279.473,70.468h-36.326V34.142l18.163,18.163L279.473,70.468z
			 M87.286,116.779c-5.522,0-10,4.477-10,10s4.478,10,10,10h101.099v29.919H87.286c-5.522,0-10,4.477-10,10s4.478,10,10,10h101.099
			v30.01H87.286c-5.522,0-10,4.477-10,10s4.478,10,10,10h101.099v30.009H87.286c-5.522,0-10,4.477-10,10s4.478,10,10,10h101.099
			v78.504H51.444V20h171.703v60.468c0,5.523,4.478,10,10,10h60.469v26.311C293.615,116.779,87.286,116.779,87.286,116.779z
			 M380.089,136.779v60.468c0,5.523,4.478,10,10,10h60.469V482H208.385V136.779H380.089z"/>
		<path d="M244.229,253.468H369.63c5.522,0,10-4.477,10-10s-4.478-10-10-10H244.229c-5.522,0-10,4.477-10,10
			S238.706,253.468,244.229,253.468z"/>
		<path d="M414.714,283.478H244.229c-5.522,0-10,4.477-10,10s4.478,10,10,10h170.486c5.522,0,10-4.477,10-10
			S420.236,283.478,414.714,283.478z"/>
		<path d="M414.714,333.487H244.229c-5.522,0-10,4.477-10,10s4.478,10,10,10h170.486c5.522,0,10-4.477,10-10
			S420.236,333.487,414.714,333.487z"/>
		<path d="M414.714,383.497H244.229c-5.522,0-10,4.477-10,10s4.478,10,10,10h170.486c5.522,0,10-4.477,10-10
			S420.236,383.497,414.714,383.497z"/>
		<path d="M414.714,233.468h-16.67c-5.522,0-10,4.477-10,10s4.478,10,10,10h16.67c5.522,0,10-4.477,10-10
			S420.236,233.468,414.714,233.468z"/>
	</g>
</g>
<g>
</g>
<g>
</g>
<g>
</g>
<g>
</g>
<g>
</g>
<g>
</g>
<g>
</g>
<g>
</g>
<g>
</g>
<g>
</g>
<g>
</g>
<g>
</g>
<g>
</g>
<g>
</g>
<g>
</g>
</svg>
