<?xml version="1.0" encoding="UTF-8"?>
<svg
   xmlns:svg="http://www.w3.org/2000/svg"
   xmlns="http://www.w3.org/2000/svg"
   xmlns:sodipodi="http://sodipodi.sourceforge.net/DTD/sodipodi-0.dtd"
   xmlns:inkscape="http://www.inkscape.org/namespaces/inkscape"
   height="24"
   viewBox="0 0 24 24"
   width="24"
   version="1.1">
  
  <path
     d="M0 0h24v24H0z"
     fill="none"
     id="path3763" />
  <path
     d="M 19,3 H 5 C 3.89,3 3,3.9 3,5 V 9 H 5 V 5 H 19 V 19 H 5 V 15 H 3 v 4 c 0,1.1 0.89,2 2,2 h 14 c 1.1,0 2,-0.9 2,-2 V 5 C 21,3.9 20.1,3 19,3 Z"
     id="path3765"
     style="fill:#4A90E2;fill-opacity:1" />
  <path
     id="path3779"
     d="M 9.41,8.41 8,7 3,12 8,17 9.41,15.59 6.83,13 H 16.5 V 11 H 6.83 Z"
     style="fill:#4A90E2;fill-opacity:1"
     inkscape:connector-curvature="0" />
</svg>
