<?xml version="1.0" encoding="iso-8859-1"?>
<!-- Generator: Adobe Illustrator 19.0.0, SVG Export Plug-In . SVG Version: 6.00 Build 0)  -->
<svg version="1.1" id="Layer_1" xmlns="http://www.w3.org/2000/svg" xmlns:xlink="http://www.w3.org/1999/xlink" x="0px" y="0px"
	 viewBox="0 0 512 512" style="enable-background:new 0 0 512 512;" xml:space="preserve">
<g>
	<path style="fill:#FBD971;" d="M512,256c0,141.383-114.617,256-256,256S0,397.383,0,256S114.617,0,256,0S512,114.617,512,256"/>
	<g>
		<path style="fill:#FFFFFF;" d="M414.897,176.473c0,29.255-23.711,52.966-52.966,52.966s-52.966-23.711-52.966-52.966
			s23.711-52.966,52.966-52.966S414.897,147.219,414.897,176.473"/>
		<path style="fill:#FFFFFF;" d="M203.034,176.473c0,29.255-23.711,52.966-52.966,52.966c-29.255,0-52.965-23.711-52.965-52.966
			s23.711-52.966,52.965-52.966C179.324,123.508,203.034,147.219,203.034,176.473"/>
	</g>
	<path style="fill:#F29C1F;" d="M344.285,362.319c-2.798,0-5.561-1.324-7.265-3.805c-35.981-52.056-107.599-65.121-159.656-29.149
		c-3.999,2.763-9.516,1.757-12.279-2.242c-2.772-4.017-1.766-9.516,2.242-12.288c60.072-41.499,142.689-26.43,184.205,33.633
		c2.781,4.017,1.765,9.516-2.242,12.288C347.772,361.807,346.015,362.319,344.285,362.319"/>
	<g>
		<path d="M176.552,202.956c0,14.627-11.855,26.483-26.483,26.483c-14.627,0-26.483-11.855-26.483-26.483
			s11.855-26.483,26.483-26.483C164.696,176.473,176.552,188.329,176.552,202.956"/>
		<path d="M388.414,202.956c0,14.627-11.855,26.483-26.483,26.483c-14.627,0-26.483-11.855-26.483-26.483
			s11.855-26.483,26.483-26.483C376.558,176.473,388.414,188.329,388.414,202.956"/>
	</g>
	<g>
		<path style="fill:#F29C1F;" d="M187.517,112.616c-2.26,0-4.52-0.865-6.241-2.586c-8.333-8.333-19.421-12.924-31.206-12.924
			c-11.785,0-22.872,4.59-31.206,12.924c-3.452,3.452-9.039,3.452-12.482,0c-3.452-3.443-3.452-9.031,0-12.482
			c11.67-11.67,27.18-18.097,43.688-18.097s32.018,6.426,43.688,18.097c3.452,3.452,3.452,9.039,0,12.482
			C192.037,111.751,189.777,112.616,187.517,112.616"/>
		<path style="fill:#F29C1F;" d="M399.379,112.616c-2.26,0-4.52-0.865-6.241-2.586c-8.333-8.333-19.421-12.924-31.206-12.924
			c-11.785,0-22.872,4.59-31.206,12.924c-3.452,3.452-9.039,3.452-12.482,0c-3.452-3.443-3.452-9.031,0-12.482
			c11.67-11.67,27.18-18.097,43.688-18.097s32.018,6.426,43.688,18.097c3.452,3.452,3.452,9.039,0,12.482
			C403.899,111.751,401.639,112.616,399.379,112.616"/>
	</g>
</g>
<g>
</g>
<g>
</g>
<g>
</g>
<g>
</g>
<g>
</g>
<g>
</g>
<g>
</g>
<g>
</g>
<g>
</g>
<g>
</g>
<g>
</g>
<g>
</g>
<g>
</g>
<g>
</g>
<g>
</g>
</svg>
