<svg width="30" height="30" viewBox="0 0 30 30" fill="none" xmlns="http://www.w3.org/2000/svg">
<path fill-rule="evenodd" clip-rule="evenodd" d="M15.9024 7.5C16.1676 7.5 16.422 7.60536 16.6095 7.79289L20.2071 11.3905C20.3946 11.578 20.5 11.8324 20.5 12.0976V20.5C20.5 21.6046 19.6046 22.5 18.5 22.5H11.5C10.3954 22.5 9.5 21.6046 9.5 20.5V9.5C9.5 8.39543 10.3954 7.5 11.5 7.5H15.9024ZM15.5 8.98284V12.3C15.5 12.4105 15.5895 12.5 15.7 12.5H19.0172C19.1953 12.5 19.2846 12.2846 19.1586 12.1586L15.8414 8.84142C15.7154 8.71543 15.5 8.80466 15.5 8.98284Z" fill="white"/>
</svg>
