<svg width="30" height="30" viewBox="0 0 30 30" fill="none" xmlns="http://www.w3.org/2000/svg">
<path fill-rule="evenodd" clip-rule="evenodd" d="M20.6527 13.3496L22.7085 13.6856C22.8769 13.713 23.0003 13.8584 23 14.0289V15.9419C23 16.1106 22.8789 16.2553 22.7123 16.2845L20.6537 16.6459C20.5344 17.0584 20.3706 17.4557 20.1643 17.8313L21.3811 19.5207C21.4809 19.6591 21.4653 19.8494 21.3449 19.9701L19.9924 21.3235C19.8728 21.4428 19.6849 21.4598 19.5465 21.3621L17.8402 20.1652C17.4639 20.3746 17.0642 20.5416 16.6471 20.6643L16.2836 22.713C16.2544 22.879 16.11 23 15.9413 23H14.0281C13.858 23 13.7129 22.8772 13.6855 22.7099L13.3459 20.6713C12.9296 20.551 12.5278 20.385 12.1476 20.176L10.4535 21.3624C10.3154 21.4595 10.1272 21.4428 10.0079 21.3235L8.65545 19.9701C8.53544 19.8494 8.51978 19.6598 8.61858 19.5217L9.81555 17.8477C9.6044 17.4657 9.43673 17.0626 9.31533 16.6442L7.28698 16.2845C7.12105 16.255 7 16.1106 7 15.9419V14.0289C7 13.8591 7.12314 13.7137 7.29081 13.6859L9.31916 13.3482C9.44126 12.9287 9.60892 12.5256 9.81938 12.1447L8.63701 10.4532C8.53996 10.3151 8.55666 10.1273 8.67597 10.008L10.0281 8.656C10.1488 8.536 10.3377 8.52 10.4765 8.61913L12.1566 9.81913C12.534 9.61252 12.9348 9.448 13.3522 9.328L13.6848 7.29183C13.7122 7.12348 13.8576 7 14.0281 7H15.9413C16.1104 7 16.2547 7.12174 16.2839 7.288L16.6426 9.3353C17.0576 9.456 17.4576 9.62226 17.8364 9.83165L19.5211 8.62087C19.6595 8.52104 19.8495 8.5367 19.9702 8.65704L21.323 10.009C21.4423 10.1287 21.459 10.3169 21.3619 10.455L20.1618 12.1652C20.3678 12.5405 20.5323 12.937 20.6527 13.3496ZM12.565 15C12.565 16.3447 13.6552 17.4348 15 17.4348C16.3448 17.4348 17.435 16.3447 17.435 15C17.435 13.6553 16.3448 12.5652 15 12.5652C13.6552 12.5652 12.565 13.6553 12.565 15Z" fill="white"/>
</svg>
