<svg width="24" height="24" viewBox="0 0 24 24" fill="none" xmlns="http://www.w3.org/2000/svg">
<path fill-rule="evenodd" clip-rule="evenodd" d="M14.3307 7.16929C13.5873 7.05887 12.806 7 12 7C7.02944 7 3 9.23858 3 12C3 13.4401 4.09589 14.738 5.84963 15.6504L8.21192 13.2881C8.07452 12.8839 8 12.4506 8 12C8 9.79086 9.79086 8 12 8C12.4506 8 12.8839 8.07452 13.2881 8.21192L14.3307 7.16929ZM11.2308 15.9261C11.4797 15.9746 11.7369 16 12 16C14.2091 16 16 14.2091 16 12C16 11.7369 15.9746 11.4797 15.9261 11.2308L18.5726 8.58427C20.0782 9.47809 21 10.6792 21 12C21 14.7614 16.9706 17 12 17C11.4016 17 10.8169 16.9676 10.2512 16.9057L11.2308 15.9261Z" fill="black"/>
<rect x="18.5" y="4.5" width="2" height="20" rx="1" transform="rotate(45 18.5 4.5)" fill="black"/>
</svg>
