<svg width="26" height="26" viewBox="0 0 26 26" fill="none" xmlns="http://www.w3.org/2000/svg">
	<circle cx="13" cy="13" r="12" fill="#27b1f0" stroke="white" stroke-width="2"/>
	<path d="M11.901 15.8419L11.67 7.90393L11.628 5.92993H13.371L13.329 7.90393L13.098 15.8419H11.901ZM12.51 20.2519C12.16 20.2519 11.859 20.1329 11.607 19.8949C11.369 19.6429 11.25 19.3279 11.25 18.9499C11.25 18.5439 11.369 18.2219 11.607 17.9839C11.859 17.7319 12.16 17.6059 12.51 17.6059C12.846 17.6059 13.133 17.7319 13.371 17.9839C13.623 18.2219 13.749 18.5439 13.749 18.9499C13.749 19.3279 13.623 19.6429 13.371 19.8949C13.133 20.1329 12.846 20.2519 12.51 20.2519Z" fill="white"/>
</svg>