<svg viewBox="0 0 30 30" fill="none" xmlns="http://www.w3.org/2000/svg">
<path fill-rule="evenodd" clip-rule="evenodd" d="M22.9423 12.5385C22.9423 15.5973 20.4626 18.0769 17.4038 18.0769C17.0209 18.0769 16.647 18.0381 16.2859 17.9641L11.25 23H7.55768V19.3077L12.2628 14.6026C12.0064 13.9647 11.8654 13.268 11.8654 12.5385C11.8654 9.47965 14.345 7 17.4038 7C20.4626 7 22.9423 9.47965 22.9423 12.5385ZM18.0192 13.1538C18.699 13.1538 19.25 12.6028 19.25 11.9231C19.25 11.2433 18.699 10.6923 18.0192 10.6923C17.3395 10.6923 16.7884 11.2433 16.7884 11.9231C16.7884 12.6028 17.3395 13.1538 18.0192 13.1538Z" fill="black"/>
</svg>
