<?xml version="1.0" encoding="iso-8859-1"?>
<!-- Generator: Adobe Illustrator 19.0.0, SVG Export Plug-In . SVG Version: 6.00 Build 0)  -->
<svg version="1.1" id="Capa_1" xmlns="http://www.w3.org/2000/svg" xmlns:xlink="http://www.w3.org/1999/xlink" x="0px" y="0px"
	 viewBox="0 0 380 380" style="enable-background:new 0 0 380 380;" xml:space="preserve">
<g id="XMLID_1087_">
	<path id="XMLID_1088_" style="fill:#ACABB1;" d="M142.5,332.5c0,26.234,21.267,47.5,47.5,47.5c26.233,0,47.5-21.266,47.5-47.5V330
		h-95V332.5z"/>
	<polygon id="XMLID_1089_" style="fill:#565659;" points="190,300 175,300 142.5,300 142.5,330 237.5,330 237.5,300 205,300 	"/>
	<path id="XMLID_1090_" style="fill:#FFE98F;" d="M175,202.904c-23.057-6.548-40-27.777-40-52.904h30c0,13.785,11.215,25,25,25
		c0-63.157,0-134.754,0-175C117.858,0,59.375,58.482,59.375,130.625c0,48.407,26.331,90.662,65.451,113.229L142.5,300H175V202.904z"
		/>
	<path id="XMLID_1091_" style="fill:#FFDA44;" d="M190,0c0,40.246,0,111.843,0,175c13.785,0,25-11.215,25-25h30
		c0,25.127-16.943,46.356-40,52.904V300h32.5l17.674-56.146c39.12-22.566,65.451-64.821,65.451-113.229
		C320.625,58.482,262.142,0,190,0z"/>
	<path id="XMLID_1092_" style="fill:#FF9811;" d="M165,150h-30c0,25.127,16.943,46.356,40,52.904V300h30v-97.096
		c23.057-6.548,40-27.777,40-52.904h-30c0,13.785-11.215,25-25,25C176.215,175,165,163.785,165,150z"/>
</g>
<g>
</g>
<g>
</g>
<g>
</g>
<g>
</g>
<g>
</g>
<g>
</g>
<g>
</g>
<g>
</g>
<g>
</g>
<g>
</g>
<g>
</g>
<g>
</g>
<g>
</g>
<g>
</g>
<g>
</g>
</svg>
