<?xml version="1.0" encoding="UTF-8" standalone="no"?>
<svg
   height="32px"
   width="32px"
   viewBox="0 0 46 46"
   version="1.1"
   id="svg35"
   sodipodi:docname="liquid-logo.svg"
   inkscape:version="1.2.1 (9c6d41e4, 2022-07-14)"
   xmlns:inkscape="http://www.inkscape.org/namespaces/inkscape"
   xmlns:sodipodi="http://sodipodi.sourceforge.net/DTD/sodipodi-0.dtd"
   xmlns="http://www.w3.org/2000/svg"
   xmlns:svg="http://www.w3.org/2000/svg">
  <defs
     id="defs39" />
  <sodipodi:namedview
     id="namedview37"
     pagecolor="#ffffff"
     bordercolor="#000000"
     borderopacity="0.25"
     inkscape:showpageshadow="2"
     inkscape:pageopacity="0.0"
     inkscape:pagecheckerboard="0"
     inkscape:deskcolor="#d1d1d1"
     showgrid="false"
     inkscape:zoom="7.375"
     inkscape:cx="-7.6610169"
     inkscape:cy="16"
     inkscape:window-width="1440"
     inkscape:window-height="900"
     inkscape:window-x="1080"
     inkscape:window-y="1463"
     inkscape:window-maximized="0"
     inkscape:current-layer="svg35" />
  <div
     style="display: none;">
    .st0{fill:#2CCCBF;}
    .st1{fill:#FFFFFF;}
</div>
  <g
     id="nav_liquid"
     transform="matrix(0.97881356,0,0,0.99152542,0.58533066,0.24666528)">
    <g
       id="Group-7"
       style="fill:#2cccbf;fill-opacity:0.96">
      <circle
         id="Oval"
         class="st0"
         cx="23"
         cy="23"
         r="23"
         style="fill:#2cccbf;fill-opacity:0.96" />
    </g>
  </g>
  <g
     id="g33"
     style="fill:#ffffff;fill-opacity:0.96"
     transform="translate(1.1694915,-0.19491525)">
    <g
       id="g9"
       style="fill:#ffffff;fill-opacity:0.96">
      <g
         id="g7"
         style="fill:#ffffff;fill-opacity:0.96">
        <path
           class="st1"
           d="m 14.6,29 c -0.5,0 -1,-0.3 -1.3,-0.8 -0.8,-1.8 -1.1,-3.7 -1.1,-5.6 0,-7.3 5.4,-13.4 12.6,-14.3 0.8,-0.1 1.4,0.4 1.5,1.2 0.1,0.8 -0.4,1.4 -1.2,1.5 -5.8,0.7 -10.2,5.7 -10.2,11.6 0,1.6 0.3,3.1 0.9,4.5 0.3,0.7 0,1.5 -0.7,1.8 C 15,29 14.8,29 14.6,29 Z"
           id="path5"
           style="fill:#ffffff;fill-opacity:0.96" />
      </g>
    </g>
    <g
       id="g15"
       style="fill:#ffffff;fill-opacity:0.96">
      <g
         id="g13"
         style="fill:#ffffff;fill-opacity:0.96">
        <path
           class="st1"
           d="m 17.6,21.4 c -0.1,0 -0.1,0 -0.2,0 -0.4,-0.1 -0.7,-0.6 -0.6,-1 1.2,-4.6 5.4,-7.8 10.1,-7.8 2.4,0 4.8,0.9 6.7,2.4 0.4,0.3 0.4,0.8 0.1,1.2 -0.3,0.4 -0.8,0.4 -1.2,0.1 -1.6,-1.3 -3.6,-2 -5.6,-2 -4,0 -7.5,2.7 -8.5,6.6 -0.1,0.2 -0.5,0.5 -0.8,0.5 z"
           id="path11"
           style="fill:#ffffff;fill-opacity:0.96" />
      </g>
    </g>
    <g
       id="g21"
       style="fill:#ffffff;fill-opacity:0.96">
      <g
         id="g19"
         style="fill:#ffffff;fill-opacity:0.96">
        <path
           class="st1"
           d="m 20.8,38.6 c -0.1,0 -0.2,0 -0.2,0 C 13.7,36.5 8.9,29.8 8.9,22.4 c 0,-3.2 0.9,-6.3 2.6,-9 0.3,-0.4 0.8,-0.5 1.2,-0.3 0.4,0.3 0.5,0.8 0.3,1.2 -1.5,2.4 -2.4,5.2 -2.4,8.1 0,6.7 4.3,12.7 10.5,14.6 0.4,0.1 0.7,0.6 0.6,1 -0.2,0.4 -0.5,0.6 -0.9,0.6 z"
           id="path17"
           style="fill:#ffffff;fill-opacity:0.96" />
      </g>
    </g>
    <g
       id="g27"
       style="fill:#ffffff;fill-opacity:0.96">
      <g
         id="g25"
         style="fill:#ffffff;fill-opacity:0.96">
        <path
           class="st1"
           d="m 26.6,36.4 c -4.1,0 -7.9,-1.6 -10.5,-4.4 -0.4,-0.4 -0.4,-1.1 0.1,-1.5 0.4,-0.4 1.1,-0.4 1.5,0.1 2.2,2.5 5.7,3.8 9.5,3.6 0.6,0 1.1,0.4 1.1,1 0,0.6 -0.4,1.1 -1,1.1 -0.2,0.1 -0.5,0.1 -0.7,0.1 z"
           id="path23"
           style="fill:#ffffff;fill-opacity:0.96" />
      </g>
    </g>
    <g
       id="g31"
       style="fill:#ffffff;fill-opacity:0.96">
      <path
         class="st1"
         d="m 33.6,28.8 c -0.3,-0.3 -0.8,-0.4 -1.2,-0.1 -0.7,0.6 -1.5,1.1 -2.3,1.5 0,0 -0.1,0 -0.1,0.1 -0.1,0 -0.2,0.1 -0.4,0.1 v 0 c -0.1,0.1 -0.3,0.1 -0.4,0.1 -0.3,0.1 -0.7,0.2 -1,0.2 v 0 c -0.1,0 -0.2,0 -0.3,0 -0.1,0 -0.1,0 -0.2,0 -0.1,0 -0.1,0 -0.2,0 -0.1,0 -0.3,0 -0.4,0 H 27 c -0.1,0 -0.2,0 -0.3,0 h -0.1 c -0.9,0 -1.8,-0.2 -2.6,-0.4 -0.4,-0.1 -0.9,0.1 -1.1,0.5 -0.1,0.4 0.1,0.9 0.5,1.1 1,0.3 2,0.5 3,0.5 v 0 c 0.1,0 0.1,0 0.2,0 v 0 0 0 c 0.2,0 0.3,0 0.5,0 0.1,0 0.1,0 0.2,0 0.1,0 0.2,0 0.3,0 0.1,0 0.3,0 0.4,0 0.1,0 0.1,0 0.2,0 0.1,0 0.2,0 0.3,-0.1 0,0 0,0 0.1,0 0.5,-0.1 1.1,-0.3 1.6,-0.4 0,0 0,0 0.1,0 0.1,0 0.3,-0.1 0.4,-0.2 0.1,0 0.1,-0.1 0.2,-0.1 0,0 0.1,0 0.1,-0.1 v 0 c 0.9,-0.4 1.8,-1 2.6,-1.7 0.3,-0.1 0.3,-0.7 0,-1 z"
         id="path29"
         style="fill:#ffffff;fill-opacity:0.96" />
    </g>
  </g>
</svg>
