<?xml version="1.0" encoding="UTF-8"?>
<svg width="26px" height="24px" viewBox="0 0 26 24" version="1.1" xmlns="http://www.w3.org/2000/svg" xmlns:xlink="http://www.w3.org/1999/xlink">
    <!-- Generator: Sketch 52.6 (67491) - http://www.bohemiancoding.com/sketch -->
    <title>login-24px</title>
    <desc>Created with Sketch.</desc>
    <g id="settings" stroke="none" stroke-width="1" fill="none" fill-rule="evenodd">
        <g id="Group-2" transform="translate(-1387.000000, -16.000000)">
            <g id="Group" transform="translate(1295.000000, 13.000000)">
                <g id="login-24px" transform="translate(90.000000, 0.000000)">
                    <rect id="Rectangle" x="0" y="0" width="30" height="30"></rect>
                    <path d="M13.75,8.75 L12,10.5 L15.25,13.75 L2.5,13.75 L2.5,16.25 L15.25,16.25 L12,19.5 L13.75,21.25 L20,15 L13.75,8.75 Z M25,23.75 L15,23.75 L15,26.25 L25,26.25 C26.375,26.25 27.5,25.125 27.5,23.75 L27.5,6.25 C27.5,4.875 26.375,3.75 25,3.75 L15,3.75 L15,6.25 L25,6.25 L25,23.75 Z" id="Shape" fill="#FFFFFF" fill-rule="nonzero"></path>
                </g>
            </g>
        </g>
    </g>
</svg>