<svg width="30" height="30" viewBox="0 0 30 30" fill="none" xmlns="http://www.w3.org/2000/svg">
    <g id="Page-1" stroke="none" stroke-width="1" fill="none" fill-rule="evenodd">
        <g id="receive" transform="translate(7.000000, 7.000000)">
            <path d="M0,12.2436 L0,15.6872 C0,16.1098 0.3426,16.4524 0.76523,16.4524 L15.3045,16.4524 C15.7272,16.4524 16.0698,16.1098 16.0698,15.6872 L16.0698,12.2436" id="Path" stroke="white" stroke-width="1.5" stroke-linecap="round" stroke-linejoin="round"></path>
            <path d="M5.8872,11.2435 C6.1801,11.5364 6.6549,11.5364 6.9478,11.2435 C7.09335115,11.0704319 7.16612673,10.8927177 7.16612673,10.7103574 C7.16612673,10.5279972 6.91658449,10.175378 6.4175,9.6525 L2.1749,5.4099 C1.882,5.117 1.4071,5.117 1.1142,5.4099 C0.8213,5.7028 0.8213,6.1776 1.1142,6.4705 L5.8872,11.2435 Z M5.6675,0 L5.6675,10.7132 L7.1675,10.7132 L7.1675,0 L5.6675,0 Z" id="Shape" fill="white" fill-rule="nonzero"></path>
            <path d="M13.8872,11.2435 C14.1801,11.5364 14.6549,11.5364 14.9478,11.2435 C15.0933512,11.0704319 15.1661267,10.8927177 15.1661267,10.7103574 C15.1661267,10.5279972 14.9165845,10.175378 14.4175,9.6525 L10.1749,5.4099 C9.882,5.117 9.4071,5.117 9.1142,5.4099 C8.8213,5.7028 8.8213,6.1776 9.1142,6.4705 L13.8872,11.2435 Z M13.6675,0 L13.6675,10.7132 L15.1675,10.7132 L15.1675,0 L13.6675,0 Z" id="Shape" fill="white" fill-rule="nonzero" transform="translate(12.031013, 5.731587) scale(-1, -1) translate(-12.031013, -5.731587) "></path>
        </g>
    </g>
</svg>