<svg width="30" height="30" viewBox="0 0 30 30" fill="none" xmlns="http://www.w3.org/2000/svg">
<path fill-rule="evenodd" clip-rule="evenodd" d="M21.3644 21.3636C19.7357 22.9925 17.4855 24 15.0001 24C10.0295 24 6.00009 19.9706 6.00009 15C6.00009 12.5145 7.00759 10.2644 8.63646 8.63571C8.64186 8.64155 8.64739 8.6473 8.65307 8.65298L11.7972 11.7971C11.7061 12.0602 11.6574 12.3447 11.6574 12.6474C11.6574 14.0001 12.6376 14.8039 14.206 15.2548L14.5981 15.3676V19.0778C13.5689 18.97 12.7258 18.4407 12.6376 17.431H11.3829C11.4956 18.9749 12.6719 20.0532 14.5981 20.1806V21.2736H15.4019V20.1806C16.9334 20.0749 17.9657 19.375 18.394 18.3939L21.3471 21.347C21.3528 21.3527 21.3585 21.3582 21.3644 21.3636ZM22.1561 20.4589C23.3129 18.9448 24.0001 17.0526 24.0001 15C24.0001 10.0294 19.9707 6 15.0001 6C12.9474 6 11.0553 6.68716 9.54114 7.844L12.4688 10.7716C12.9955 10.2755 13.7422 9.95571 14.5981 9.86837V8.72638H15.4019V9.85367C17.1762 9.9713 18.4309 11.0594 18.4799 12.4905H17.3036C17.1958 11.5985 16.441 11.0398 15.4019 10.9368V13.7048L16.4127 14.7155C17.3254 15.032 18.399 15.6275 18.588 16.8909L22.1561 20.4589ZM14.5981 12.901V10.9515C14.0257 11.027 13.5638 11.2447 13.2564 11.5592L14.5981 12.901ZM12.8611 12.861C12.9814 13.4373 13.4804 13.7824 14.0016 14.0015L12.8611 12.861ZM15.6749 15.6748C15.5979 15.6519 15.5198 15.6296 15.4411 15.6077L15.4019 15.5979V19.0778C16.5231 18.9527 17.3465 18.3328 17.4333 17.4332L15.6749 15.6748Z" fill="black"/>
</svg>
