<?xml version="1.0" encoding="iso-8859-1"?>
<!-- Generator: Adobe Illustrator 19.0.0, SVG Export Plug-In . SVG Version: 6.00 Build 0)  -->
<svg version="1.1" id="Layer_1" xmlns="http://www.w3.org/2000/svg" xmlns:xlink="http://www.w3.org/1999/xlink" x="0px" y="0px"
	 viewBox="0 0 496 496" style="enable-background:new 0 0 496 496;" xml:space="preserve">
<path style="fill:#CAD9DD;" d="M480,445.6c0,17.6-17.6,34.4-34.4,34.4H50.4C33.6,480,16,462.4,16,445.6V50.4
	C16,33.6,33.6,16,50.4,16h395.2c16.8,0,34.4,17.6,34.4,34.4V445.6z"/>
<path style="fill:#B6CCD1;" d="M19.2,48.8C19.2,32,33.6,16,50.4,16h395.2c16.8,0,34.4,17.6,34.4,34.4v395.2
	c0,17.6-16,30.4-32.8,30.4"/>
<path style="fill:#9EC1C6;" d="M24,72.8v385.6c0,10.4,13.6,21.6,26.4,21.6h14.4c-2.4-8-0.8-8.8-0.8-12V72.8c0-6.4,2.4-8.8,8.8-8.8
	H468c3.2,0,4-1.6,12,0.8V50.4c0-12.8-11.2-26.4-21.6-26.4H72.8C44.8,24,24,44.8,24,72.8z"/>
<path style="fill:#2F4745;" d="M445.6,496H50.4C22.4,496,0,473.6,0,445.6V50.4C0,22.4,22.4,0,50.4,0h395.2c28,0,50.4,22.4,50.4,50.4
	v395.2C496,473.6,473.6,496,445.6,496z M456,52c0-6.4-5.6-12-12-12H52c-6.4,0-12,5.6-12,12v392.8c0,5.6,5.6,11.2,12,11.2h392
	c6.4,0,12-5.6,12-12V52z"/>
<path style="opacity:0.2;fill:#616F70;enable-background:new    ;" d="M346.4,324.8l-48-48l48-48c7.2-7.2,10.4-16,10.4-25.6
	c0-8.8-3.2-18.4-10.4-25.6c-14.4-13.6-36.8-13.6-50.4,0l-48,48l-48-48c-13.6-13.6-36.8-13.6-50.4,0c-13.6,13.6-13.6,36.8,0,50.4
	l48,48l-48,48c-13.6,13.6-13.6,36.8,0,50.4s36.8,13.6,50.4,0l48-48l48,48c7.2,7.2,16,10.4,25.6,10.4c8.8,0,18.4-3.2,25.6-10.4
	C360,361.6,360,338.4,346.4,324.8z"/>
<path style="fill:#EF0770;" d="M346.4,297.6l-48-48l48-48c7.2-7.2,10.4-16,10.4-25.6c0-8.8-3.2-18.4-10.4-25.6
	c-14.4-13.6-36.8-13.6-50.4,0l-48,48l-48-48c-13.6-13.6-36.8-13.6-50.4,0c-13.6,13.6-13.6,36.8,0,50.4l48,48l-48,48
	c-13.6,13.6-13.6,36.8,0,50.4s36.8,13.6,50.4,0l48-48l48,48c7.2,7.2,16,10.4,25.6,10.4c8.8,0,18.4-3.2,25.6-10.4
	C360,334.4,360,312,346.4,297.6z"/>
<g>
</g>
<g>
</g>
<g>
</g>
<g>
</g>
<g>
</g>
<g>
</g>
<g>
</g>
<g>
</g>
<g>
</g>
<g>
</g>
<g>
</g>
<g>
</g>
<g>
</g>
<g>
</g>
<g>
</g>
</svg>
