<?xml version="1.0" encoding="iso-8859-1"?>
<!-- Generator: Adobe Illustrator 19.0.0, SVG Export Plug-In . SVG Version: 6.00 Build 0)  -->
<svg version="1.1" id="Layer_1" xmlns="http://www.w3.org/2000/svg" xmlns:xlink="http://www.w3.org/1999/xlink" x="0px" y="0px"
	 viewBox="0 0 512.002 512.002" style="enable-background:new 0 0 512.002 512.002;" xml:space="preserve">
<g>
	<g>
		<polygon style="fill:#C4BFAD;" points="95.991,103.499 186.011,95.627 33.463,82.278 0,464.816 128.585,476.07 		"/>
		<polygon style="fill:#C4BFAD;" points="186.009,481.091 382.534,498.288 385.57,463.628 		"/>
	</g>
	<path style="fill:#ECE8D8;" d="M478.53,70.032l-70.373,6.153c-6.702,16.942-23.131,28.955-42.441,28.955
		c-16.466,0-30.775-8.777-38.83-21.842L95.993,103.504l33.463,382.537l382.546-33.472L478.53,70.032z"/>
	<g>
		<path style="fill:#C9B693;" d="M394.738,215.945c0.265,0,0.539-0.009,0.805-0.037l27.319-2.395c5.038-0.43,8.75-4.873,8.311-9.902
			c-0.439-5.019-4.901-8.795-9.902-8.311l-27.319,2.395c-5.038,0.439-8.75,4.873-8.311,9.902
			C386.062,212.352,390.048,215.945,394.738,215.945"/>
		<path style="fill:#C9B693;" d="M294.551,224.713c0.265,0,0.539-0.009,0.805-0.037l63.753-5.577
			c5.029-0.439,8.75-4.873,8.311-9.902c-0.448-5.029-4.901-8.759-9.902-8.311l-63.753,5.577c-5.038,0.439-8.75,4.873-8.311,9.902
			C285.874,221.12,289.861,224.713,294.551,224.713"/>
		<path style="fill:#C9B693;" d="M176.944,235.035l81.975-7.168c5.038-0.439,8.75-4.873,8.311-9.902
			c-0.439-5.029-4.974-8.768-9.902-8.311l-81.975,7.168c-5.038,0.439-8.75,4.873-8.311,9.902c0.421,4.754,4.407,8.347,9.097,8.347
			C176.404,235.071,176.678,235.062,176.944,235.035"/>
		<path style="fill:#C9B693;" d="M362.301,255.535c-5.038,0.439-8.75,4.873-8.311,9.902c0.421,4.763,4.407,8.347,9.097,8.347
			c0.265,0,0.539-0.009,0.805-0.037l63.753-5.577c5.038-0.439,8.75-4.873,8.32-9.902c-0.448-5.029-4.901-8.768-9.902-8.311
			L362.301,255.535z"/>
		<path style="fill:#C9B693;" d="M309.247,278.526c5.038-0.439,8.75-4.873,8.311-9.902c-0.448-5.029-4.928-8.805-9.902-8.311
			l-63.753,5.577c-5.038,0.439-8.75,4.873-8.32,9.902c0.421,4.763,4.416,8.347,9.097,8.347c0.274,0,0.539-0.009,0.805-0.037
			L309.247,278.526z"/>
		<path style="fill:#C9B693;" d="M181.73,289.687l27.319-2.395c5.038-0.439,8.75-4.873,8.311-9.902
			c-0.43-5.029-4.827-8.731-9.902-8.311l-27.319,2.395c-5.038,0.439-8.75,4.873-8.311,9.902c0.421,4.754,4.407,8.347,9.097,8.347
			C181.19,289.723,181.465,289.714,181.73,289.687"/>
		<path style="fill:#C9B693;" d="M412.614,306.195c-5.029,0.439-8.75,4.873-8.302,9.911c0.421,4.754,4.407,8.338,9.097,8.338
			c0.265,0,0.539-0.009,0.814-0.037l18.213-1.6c5.029-0.43,8.75-4.873,8.302-9.911c-0.448-5.01-4.709-8.731-9.911-8.302
			L412.614,306.195z"/>
		<path style="fill:#C9B693;" d="M285.104,317.348c-5.038,0.439-8.75,4.873-8.311,9.902c0.411,4.763,4.407,8.347,9.097,8.347
			c0.265,0,0.539-0.009,0.805-0.037l91.09-7.963c5.038-0.439,8.75-4.873,8.311-9.902s-4.91-8.731-9.902-8.311L285.104,317.348z"/>
		<path style="fill:#C9B693;" d="M230.461,322.133l-45.541,3.986c-5.038,0.43-8.75,4.873-8.32,9.902
			c0.411,4.754,4.416,8.347,9.097,8.347c0.274,0,0.539-0.009,0.805-0.037l45.55-3.986c5.038-0.439,8.75-4.873,8.311-9.902
			C239.933,325.415,235.499,321.676,230.461,322.133"/>
		<path style="fill:#C9B693;" d="M435.622,359.249l-91.081,7.973c-5.038,0.439-8.75,4.873-8.311,9.902
			c0.421,4.763,4.407,8.347,9.097,8.347c0.265,0,0.539-0.009,0.805-0.037l91.081-7.973c5.038-0.439,8.75-4.873,8.311-9.902
			C445.076,362.532,440.651,358.765,435.622,359.249"/>
		<path style="fill:#C9B693;" d="M289.89,371.999l-36.425,3.191c-5.038,0.43-8.75,4.873-8.32,9.902
			c0.421,4.754,4.416,8.347,9.106,8.347c0.265,0,0.53-0.009,0.795-0.037l36.434-3.191c5.038-0.439,8.75-4.873,8.311-9.902
			S294.964,371.56,289.89,371.999"/>
		<path style="fill:#C9B693;" d="M217.024,378.374l-27.319,2.395c-5.038,0.439-8.75,4.873-8.311,9.902
			c0.411,4.754,4.407,8.347,9.097,8.347c0.265,0,0.53-0.009,0.805-0.037l27.319-2.395c5.038-0.439,8.75-4.873,8.311-9.902
			C226.487,381.657,221.952,377.926,217.024,378.374"/>
	</g>
	<path style="fill:#B8BDC1;" d="M283.426,150.856c-2.341,0-4.681-0.896-6.464-2.679c-3.575-3.575-3.575-9.353,0-12.928
		l49.966-49.966c3.566-3.566,9.353-3.566,12.928,0c3.566,3.575,3.566,9.362,0,12.928l-49.966,49.966
		C288.107,149.96,285.766,150.856,283.426,150.856"/>
	<path style="fill:#E02B22;" d="M411.426,59.428c0-25.243-20.471-45.714-45.714-45.714c-25.243,0-45.714,20.471-45.714,45.714
		s20.471,45.714,45.714,45.714C390.955,105.142,411.426,84.671,411.426,59.428"/>
</g>
<g>
</g>
<g>
</g>
<g>
</g>
<g>
</g>
<g>
</g>
<g>
</g>
<g>
</g>
<g>
</g>
<g>
</g>
<g>
</g>
<g>
</g>
<g>
</g>
<g>
</g>
<g>
</g>
<g>
</g>
</svg>
