<?xml version="1.0" encoding="UTF-8" standalone="no"?>
<svg
   width="30"
   height="30"
   viewBox="0 0 30 30"
   fill="none"
   version="1.1"
   id="svg6"
   sodipodi:docname="receive.svg"
   inkscape:version="1.1.2 (0a00cf5339, 2022-02-04)"
   xmlns:inkscape="http://www.inkscape.org/namespaces/inkscape"
   xmlns:sodipodi="http://sodipodi.sourceforge.net/DTD/sodipodi-0.dtd"
   xmlns="http://www.w3.org/2000/svg"
   xmlns:svg="http://www.w3.org/2000/svg">
  <defs
     id="defs10" />
  <sodipodi:namedview
     id="namedview8"
     pagecolor="#ffffff"
     bordercolor="#999999"
     borderopacity="1"
     inkscape:pageshadow="0"
     inkscape:pageopacity="0"
     inkscape:pagecheckerboard="0"
     showgrid="false"
     inkscape:zoom="21.466667"
     inkscape:cx="14.976708"
     inkscape:cy="15"
     inkscape:window-width="1920"
     inkscape:window-height="1007"
     inkscape:window-x="0"
     inkscape:window-y="0"
     inkscape:window-maximized="1"
     inkscape:current-layer="svg6" />
  <path
     d="M7 19.2436V22.6872C7 23.1098 7.3426 23.4524 7.76523 23.4524H22.3045C22.7272 23.4524 23.0698 23.1098 23.0698 22.6872V19.2436"
     stroke="white"
     stroke-width="1.5"
     stroke-linecap="round"
     stroke-linejoin="round"
     id="path2" />
  <path
     d="M14.8872 18.2435C15.1801 18.5364 15.6549 18.5364 15.9478 18.2435L20.7208 13.4705C21.0137 13.1776 21.0137 12.7028 20.7208 12.4099C20.4279 12.117 19.953 12.117 19.6601 12.4099L15.4175 16.6525L11.1749 12.4099C10.882 12.117 10.4071 12.117 10.1142 12.4099C9.8213 12.7028 9.8213 13.1776 10.1142 13.4705L14.8872 18.2435ZM14.6675 7L14.6675 17.7132L16.1675 17.7132L16.1675 7L14.6675 7Z"
     fill="white"
     id="path4" />
  <g
     style="fill:none"
     id="g838"
     transform="matrix(0.56923188,0,0,0.56923188,16.160471,-3.2634006)">
    <path
       fill-rule="evenodd"
       clip-rule="evenodd"
       d="m 24,15 c 0,4.9706 -4.0294,9 -9,9 -4.9706,0 -9,-4.0294 -9,-9 0,-4.9706 4.0294,-9 9,-9 4.9706,0 9,4.0294 9,9 z m -9.4998,-0.0149 c -0.004,0.1329 0.0448,0.267 0.1462,0.3684 l 2.8284,2.8284 c 0.1953,0.1953 0.5119,0.1953 0.7071,0 0.1953,-0.1952 0.1953,-0.5118 0,-0.7071 l -2.682,-2.6819 V 9.96997 c 0,-0.27614 -0.2238,-0.5 -0.5,-0.5 -0.2761,0 -0.5,0.22386 -0.5,0.5 V 14.97 c 0,0.005 10e-5,0.0101 3e-4,0.0151 z"
       fill="white"
       id="path829" />
  </g>
</svg>
