<svg width="30" height="30" viewBox="0 0 30 30" fill="none" xmlns="http://www.w3.org/2000/svg">
<path fill-rule="evenodd" clip-rule="evenodd" d="M18.8182 7.5H13.5637L9 11.6834V20.5C9 21.6046 9.97683 22.5 11.1818 22.5H18.8182C20.0232 22.5 21 21.6046 21 20.5V9.5C21 8.39543 20.0232 7.5 18.8182 7.5ZM18.75 9C18.3358 9 18 9.33579 18 9.75V12.25C18 12.6642 18.3358 13 18.75 13C19.1642 13 19.5 12.6642 19.5 12.25V9.75C19.5 9.33579 19.1642 9 18.75 9ZM16 9.75C16 9.33579 16.3358 9 16.75 9C17.1642 9 17.5 9.33579 17.5 9.75V12.25C17.5 12.6642 17.1642 13 16.75 13C16.3358 13 16 12.6642 16 12.25V9.75ZM14.75 9C14.3358 9 14 9.33579 14 9.75V12.25C14 12.6642 14.3358 13 14.75 13C15.1642 13 15.5 12.6642 15.5 12.25V9.75C15.5 9.33579 15.1642 9 14.75 9Z" fill="white"/>
</svg>
