<?xml version="1.0" encoding="UTF-8"?>
<svg width="24px" height="25px" viewBox="0 0 24 25" version="1.1" xmlns="http://www.w3.org/2000/svg" xmlns:xlink="http://www.w3.org/1999/xlink">
    <!-- Generator: Sketch 52.6 (67491) - http://www.bohemiancoding.com/sketch -->
    <title>settings-24px</title>
    <desc>Created with Sketch.</desc>
    <g id="settings" stroke="none" stroke-width="1" fill="none" fill-rule="evenodd">
        <g id="Group-2" transform="translate(-1343.000000, -15.000000)">
            <g id="Group" transform="translate(1295.000000, 13.000000)">
                <g id="settings-24px" transform="translate(45.000000, 0.000000)">
                    <polygon id="Path" points="0 0 30 0 30 30 0 30"></polygon>
                    <path d="M23.8477187,15.7464286 C23.8972857,15.3714286 23.9220693,14.9839286 23.9220693,14.5714286 C23.9220693,14.1714286 23.8972857,13.7714286 23.8353269,13.3964286 L26.3508548,11.4214286 C26.5739065,11.2464286 26.6358653,10.9089286 26.4995559,10.6589286 L24.1203375,6.50892857 C23.9716363,6.23392857 23.6618422,6.14642857 23.3892235,6.23392857 L20.4275921,7.43392857 C19.808004,6.95892857 19.1512406,6.55892857 18.4201266,6.25892857 L17.9740231,3.08392857 C17.924456,2.78392857 17.6766208,2.57142857 17.3792185,2.57142857 L12.6207815,2.57142857 C12.3233792,2.57142857 12.0879357,2.78392857 12.0383687,3.08392857 L11.5922652,6.25892857 C10.8611512,6.55892857 10.191996,6.97142857 9.58479963,7.43392857 L6.6231683,6.23392857 C6.35054952,6.13392857 6.04075545,6.23392857 5.8920543,6.50892857 L3.52522759,10.6589286 C3.37652643,10.9214286 3.42609349,11.2464286 3.67392874,11.4214286 L6.1894566,13.3964286 C6.12749779,13.7714286 6.07793074,14.1839286 6.07793074,14.5714286 C6.07793074,14.9589286 6.10271426,15.3714286 6.16467308,15.7464286 L3.64914522,17.7214286 C3.42609349,17.8964286 3.36413467,18.2339286 3.50044406,18.4839286 L5.87966253,22.6339286 C6.02836369,22.9089286 6.33815776,22.9964286 6.61077654,22.9089286 L9.57240787,21.7089286 C10.191996,22.1839286 10.8487594,22.5839286 11.5798734,22.8839286 L12.0259769,26.0589286 C12.0879357,26.3589286 12.3233792,26.5714286 12.6207815,26.5714286 L17.3792185,26.5714286 C17.6766208,26.5714286 17.924456,26.3589286 17.9616313,26.0589286 L18.4077348,22.8839286 C19.1388488,22.5839286 19.808004,22.1839286 20.4152004,21.7089286 L23.3768317,22.9089286 C23.6494505,23.0089286 23.9592446,22.9089286 24.1079457,22.6339286 L26.4871642,18.4839286 C26.6358653,18.2089286 26.5739065,17.8964286 26.338463,17.7214286 L23.8477187,15.7464286 Z M15,19.0714286 C12.546431,19.0714286 10.5389654,17.0464286 10.5389654,14.5714286 C10.5389654,12.0964286 12.546431,10.0714286 15,10.0714286 C17.453569,10.0714286 19.4610346,12.0964286 19.4610346,14.5714286 C19.4610346,17.0464286 17.453569,19.0714286 15,19.0714286 Z" id="Shape" fill="#FFFFFF" fill-rule="nonzero"></path>
                </g>
            </g>
        </g>
    </g>
</svg>