<?xml version="1.0" encoding="UTF-8"?>
<svg width="16px" height="18px" viewBox="0 0 16 18" version="1.1" xmlns="http://www.w3.org/2000/svg" xmlns:xlink="http://www.w3.org/1999/xlink">
    <!-- Generator: Sketch 52.6 (67491) - http://www.bohemiancoding.com/sketch -->
    <title>money_off-24px</title>
    <desc>Created with Sketch.</desc>
    <g id="Page-1" stroke="none" stroke-width="1" fill="none" fill-rule="evenodd">
        <g id="money_off-24px" transform="translate(-4.000000, -3.000000)">
            <polygon id="Path" points="0 0 24 0 24 24 0 24"></polygon>
            <path d="M12.5,6.9 C14.28,6.9 14.94,7.75 15,9 L17.21,9 C17.14,7.28 16.09,5.7 14,5.19 L14,3 L11,3 L11,5.16 C10.47,5.28 9.97,5.46 9.52,5.7 L10.99,7.17 C11.4,7 11.9,6.9 12.5,6.9 Z M5.33,4.06 L4.06,5.33 L7.5,8.77 C7.5,10.85 9.06,11.98 11.41,12.68 L14.92,16.19 C14.58,16.67 13.87,17.1 12.5,17.1 C10.44,17.1 9.63,16.18 9.52,15 L7.32,15 C7.44,17.19 9.08,18.42 11,18.83 L11,21 L14,21 L14,18.85 C14.96,18.67 15.82,18.3 16.45,17.73 L18.67,19.95 L19.94,18.68 L5.33,4.06 Z" id="Shape" fill="#FFFFFF" fill-rule="nonzero"></path>
        </g>
    </g>
</svg>