<?xml version="1.0" encoding="UTF-8"?><svg version="1.1" viewBox="0 0 64 64" xmlns="http://www.w3.org/2000/svg" xmlns:xlink="http://www.w3.org/1999/xlink"><!--Generated by IJSVG (https://github.com/iconjar/IJSVG)--><path d="M47.5,12.0147l-13.5732,0.0045l2.61438e-07,-8.63167e-11c-1.59142,0.000525381 -3.11743,0.633263 -4.2423,1.759l-20.7708,20.7857l-2.16864e-07,2.17032e-07c-1.17387,1.17478 -1.17387,3.07852 4.33729e-07,4.2533l16.3051,16.3182l-6.26718e-08,-6.27262e-08c1.17259,1.17361 3.07455,1.17443 4.24816,0.00184441c0.000615027,-0.000614493 0.00122979,-0.00122925 0.00184428,-0.00184428l20.7723,-20.7874l-1.63596e-07,1.63709e-07c1.12404,-1.12481 1.75559,-2.64983 1.7559,-4.24l0.0047,-13.5918l-1.80367e-08,5.31489e-05c0.000858086,-2.48528 -2.01316,-4.5007 -4.49845,-4.50155c-0.00106693,-3.68377e-07 -0.00213387,-3.57305e-07 -0.0032008,3.32171e-08Zm-4.5236,12.04l-1.58274e-07,1.31564e-10c-1.661,0.00138062 -3.00862,-1.344 -3.01,-3.005c-0.00138062,-1.661 1.344,-3.00862 3.005,-3.01c1.661,-0.00138062 3.00862,1.344 3.01,3.005c6.92381e-07,0.000832987 1.03869e-06,0.00166597 1.03894e-06,0.00249896l6.03386e-08,0.000162101c0.000573239,1.66028 -1.34488,3.00666 -3.00516,3.00724c-3.34275e-05,1.15414e-08 -6.68549e-05,2.25253e-08 -0.000100282,3.29516e-08Z" fill="white" fill-rule="evenodd"></path></svg>
