<?xml version="1.0" encoding="UTF-8"?>
<svg width="14px" height="23px" viewBox="0 0 14 23" version="1.1" xmlns="http://www.w3.org/2000/svg" xmlns:xlink="http://www.w3.org/1999/xlink">
    <!-- Generator: Sketch 52.6 (67491) - http://www.bohemiancoding.com/sketch -->
    <title>trezor</title>
    <desc>Created with Sketch.</desc>
    <g id="devices" stroke="none" stroke-width="1" fill="none" fill-rule="evenodd">
        <g id="trezor" fill="#FFFFFF" stroke="#FFFFFF" stroke-width="0.7">
            <path d="M1,0.35 C0.641014913,0.35 0.35,0.641014913 0.35,1 L0.349553698,12.8266701 C0.432338659,14.4643936 0.737261932,15.8030029 1.25941001,16.8429525 C1.49989029,17.3219112 3.80800546,20.098682 3.95238614,20.2871462 C4.15275018,20.5486872 4.43285093,21.0062661 4.7994952,21.6679798 C4.91403392,21.8746975 5.13174317,22.0029634 5.36806974,22.0029634 L8.81289044,22.0029412 C9.03947192,22.0029412 9.24969537,21.8849554 9.36772452,21.6915368 C9.77982265,21.0162948 10.0832128,20.5505335 10.2828314,20.2881023 C10.6882469,19.7551176 11.9831383,18.1263914 11.8879078,18.2479999 C12.4069572,17.5851786 12.6964797,17.1702051 12.8529857,16.8473339 C13.3479033,15.8263215 13.6156367,14.4799068 13.65,12.8155967 L13.65,1 C13.65,0.641014913 13.3589851,0.35 13,0.35 L1,0.35 Z M2.5,2.65 L11.5,2.65 C11.969442,2.65 12.35,3.03055796 12.35,3.5 L12.35,12.5 C12.35,12.969442 11.969442,13.35 11.5,13.35 L2.5,13.35 C2.03055796,13.35 1.65,12.969442 1.65,12.5 L1.65,3.5 C1.65,3.03055796 2.03055796,2.65 2.5,2.65 Z" id="Combined-Shape"></path>
        </g>
    </g>
</svg>