<svg width="30" height="30" viewBox="0 0 30 30" fill="none" xmlns="http://www.w3.org/2000/svg">
<path fill-rule="evenodd" clip-rule="evenodd" d="M23.75 15.5C23.75 17.9853 21.7353 20 19.25 20C18.9388 20 18.6351 19.9684 18.3417 19.9083L14.25 24H11.25V21L15.0729 17.1771C14.8646 16.6588 14.75 16.0928 14.75 15.5C14.75 13.0147 16.7647 11 19.25 11C21.7353 11 23.75 13.0147 23.75 15.5ZM19.75 16C20.3023 16 20.75 15.5523 20.75 15C20.75 14.4477 20.3023 14 19.75 14C19.1977 14 18.75 14.4477 18.75 15C18.75 15.5523 19.1977 16 19.75 16Z" fill="black"/>
<path fill-rule="evenodd" clip-rule="evenodd" d="M18.6452 9.5301C15.787 9.81619 13.5199 12.1082 13.2724 14.9776L9.25 19H6.25V16L10.0729 12.1771C9.86462 11.6588 9.75 11.0928 9.75 10.5C9.75 8.01472 11.7647 6 14.25 6C16.4023 6 18.2017 7.51101 18.6452 9.5301ZM15.75 10C15.75 10.5523 15.3023 11 14.75 11C14.1977 11 13.75 10.5523 13.75 10C13.75 9.44772 14.1977 9 14.75 9C15.3023 9 15.75 9.44772 15.75 10Z" fill="black"/>
</svg>
