<?xml version="1.0" encoding="UTF-8"?>
<svg width="14px" height="10px" viewBox="0 0 14 10" version="1.1" xmlns="http://www.w3.org/2000/svg" xmlns:xlink="http://www.w3.org/1999/xlink">
    <!-- Generator: Sketch 52.6 (67491) - http://www.bohemiancoding.com/sketch -->
    <title>Path</title>
    <desc>Created with Sketch.</desc>
    <g id="screenshot" stroke="none" stroke-width="1" fill="none" fill-rule="evenodd">
        <path d="M8.6084507,1.73584906 L8.6084507,4.22641509 L9.25633803,4.22641509 L9.25633803,5.47169811 L7.31267606,5.47169811 L7.31267606,0.490566038 L8.6084507,0.490566038 L6.66478873,-2 L4.72112676,0.490566038 L6.01690141,0.490566038 L6.01690141,5.47169811 L4.07323944,5.47169811 L4.07323944,4.18283019 C4.52676056,3.95245283 4.85070423,3.51037736 4.85070423,2.98113208 C4.85070423,2.22773585 4.20929577,1.61132075 3.42535211,1.61132075 C2.64140845,1.61132075 2,2.22773585 2,2.98113208 C2,3.51037736 2.32394366,3.95245283 2.77746479,4.18283019 L2.77746479,5.47169811 C2.77746479,6.16283019 3.35408451,6.71698113 4.07323944,6.71698113 L6.01690141,6.71698113 L6.01690141,8.61603774 C5.55690141,8.84641509 5.23943662,9.3009434 5.23943662,9.83018868 C5.23943662,10.5898113 5.88084507,11.2 6.66478873,11.2 C7.44873239,11.2 8.09014085,10.5898113 8.09014085,9.83018868 C8.09014085,9.3009434 7.77267606,8.84641509 7.31267606,8.61603774 L7.31267606,6.71698113 L9.25633803,6.71698113 C9.97549296,6.71698113 10.5521127,6.16283019 10.5521127,5.47169811 L10.5521127,4.22641509 L11.2,4.22641509 L11.2,1.73584906 L8.6084507,1.73584906 Z" id="Path" fill="#FFFFFF" transform="translate(6.600000, 4.600000) rotate(-90.000000) translate(-6.600000, -4.600000) "></path>
    </g>
</svg>