
<svg version="1.1" id="Layer_1" xmlns="http://www.w3.org/2000/svg" xmlns:xlink="http://www.w3.org/1999/xlink" x="0px" y="0px"
	 viewBox="0 0 43.9 43.9" style="enable-background:new 0 0 43.9 43.9;" xml:space="preserve">
<style type="text/css">
	.st0{fill:#FD5329;}
	.st1{fill:#231F20;}
</style>
<path class="st0" d="M43.9,0L0,0.1v43.9h43.9L43.9,0z M20.4,40.8H3.1V3.1h17.2v4.7H7.8v28.2h12.6L20.4,40.8z M28.2,20.4H11V11h17.3
	c2.6,0,4.7,2.2,4.6,4.8C32.8,18.3,30.8,20.3,28.2,20.4z M32.9,28.2v4.7H11v-9.4h17.3C30.8,23.5,32.9,25.6,32.9,28.2
	C32.9,28.2,32.9,28.2,32.9,28.2L32.9,28.2z M40.8,40.8H23.5v-4.7h12.6v-7.8c0-2.5-1.2-4.8-3.1-6.3l0,0c3.5-2.6,4.2-7.5,1.6-11
	c-1.5-2-3.8-3.1-6.3-3.1h-4.7V3.1h17.2L40.8,40.8z"/>
</svg>
