<svg height="204" viewBox="0 0 204 204" width="204" xmlns="http://www.w3.org/2000/svg"><path d="m102 0c56.333044 0 102 45.6669555 102 102 0 56.333044-45.666956 102-102 102-56.3330445 0-102-45.666956-102-102 0-56.3330445 45.6669555-102 102-102zm-65.0121954 83.9261449c-.2324671.5584376-.532609 1.0989318-.6872941 1.6783765-2.2205225 8.3319247-2.7918027 16.7745736-1.8940138 25.3546446 3.3503391 32.015196 30.2343495 56.727374 59.0185259 59.505558 6.2445329.603077 12.4429244.417953 18.3016224-2.239003 11.21643-5.086771 13.284464-19.061717 3.890419-26.987505-2.491222-2.102019-5.229851-4.110819-8.18381-5.437327-9.2560583-4.157647-18.6544978-8.00369-28.0256915-11.904001-9.259135-3.853482-18.4321385-7.860578-26.4410485-14.03184-7.7975363-6.009331-13.2879793-13.485656-14.8040692-23.4421266-.1243633-.8148988-.3023391-1.6214824-.4557059-2.4320047zm98.0560854-38.7494894c-15.051039-9.212033-31.338679-12.0536753-48.6743985-8.996273-10.2311903 1.8044189-19.4692318 5.7554965-26.9385017 13.1793036-12.3893115 12.3132-13.0177197 31.7587341.5906159 43.4307812 4.5974878 3.9432 9.8897405 7.3708517 15.3832595 9.9284607 10.6451488 4.956354 21.675692 9.087742 32.5133178 13.640584 7.841042 3.294169 15.392049 7.09776 21.771053 12.879077 9.799654 8.881172 11.592594 22.456984 5.969 32.246711-.168309.293223-.233786.645529-.411762 1.155389.535686.096281.764198.207444.94437.154489.343208-.101534.673232-.272216.983921-.455153 7.015322-4.137078 13.123626-9.290372 17.7009-16.066461 9.519726-14.094424 7.513654-30.032217-5.557239-40.901181-4.559696-3.79265-9.663426-7.2176757-15.035658-9.7013228-10.857401-5.0202494-22.07339-9.2706776-33.132498-13.8602823-6.1421418-2.5492942-12.3233944-5.0276895-17.5985086-9.2299765-8.1363495-6.4819906-4.0806989-15.2760706 1.9392768-18.2945224 3.6386159-1.8245506 7.5039862-2.3208423 11.5148131-2.0578165 7.2139517.4730965 13.9005677 2.6980942 20.1824537 6.1546307 12.5251 6.8920658 22.452193 16.6857317 31.136972 27.8501082.497453.6394023 1.086312 1.2074682 1.633422 1.8087953.184567-.0949694.369135-.1903765.554142-.2853459-.129197-.6507812-.197751-1.3203812-.397699-1.9488424-1.50027-4.7182729-3.069094-9.4155388-4.503007-14.1535059-.240816-.7952047-.213131-1.9024517.165232-2.6153788 2.523301-4.7515341 2.299623-9.3757129-.406048-13.9311812-2.522423-4.246927-6.178617-7.3918588-10.327429-9.931087z" fill="#fbfbfb" fill-rule="evenodd"/></svg>