<?xml version="1.0" encoding="UTF-8" standalone="no"?>
<!-- Created with Inkscape (http://www.inkscape.org/) -->

<svg
   id="Layer_1"
   xml:space="preserve"
   version="1.0"
   viewBox="0 0 112 163"
   inkscape:version="1.2 (dc2aedaf03, 2022-05-15)"
   sodipodi:docname="lock.svg"
   xmlns:inkscape="http://www.inkscape.org/namespaces/inkscape"
   xmlns:sodipodi="http://sodipodi.sourceforge.net/DTD/sodipodi-0.dtd"
   xmlns="http://www.w3.org/2000/svg"
   xmlns:svg="http://www.w3.org/2000/svg"
   xmlns:rdf="http://www.w3.org/1999/02/22-rdf-syntax-ns#"
   xmlns:cc="http://creativecommons.org/ns#"
   xmlns:dc="http://purl.org/dc/elements/1.1/"><defs
   id="defs8" /><sodipodi:namedview
   id="namedview6"
   pagecolor="#ffffff"
   bordercolor="#666666"
   borderopacity="1.0"
   inkscape:showpageshadow="2"
   inkscape:pageopacity="0.0"
   inkscape:pagecheckerboard="0"
   inkscape:deskcolor="#d1d1d1"
   showgrid="false"
   inkscape:zoom="5.1349693"
   inkscape:cx="56.183393"
   inkscape:cy="81.597372"
   inkscape:window-width="1920"
   inkscape:window-height="1017"
   inkscape:window-x="-8"
   inkscape:window-y="-8"
   inkscape:window-maximized="1"
   inkscape:current-layer="Layer_1" />
<path
   id="path3"
   style="fill-rule:evenodd;fill:#e6e6e6"
   d="m57.309 28.614c12.105 0 19.902 12.698 20.064 28.445h-40.128c0.163-15.747 7.959-28.445 20.064-28.445zm0-15.723c-18.861 0-34.144 19.958-34.144 44.575l0.008 0.618c-6.415 2.349-10.983 8.487-10.983 15.69v39.206c0 17.46 20.202 31.61 45.119 31.61 24.918 0 45.121-14.15 45.121-31.61v-39.206c0-7.203-4.57-13.341-10.984-15.69l0.008-0.618c0-24.617-15.284-44.575-34.145-44.575zm-12.804 81.248c0-7.049 5.731-12.764 12.804-12.764s12.804 5.715 12.804 12.764c0 4.512-2.349 8.481-5.894 10.751v11.74h-13.82v-11.74c-3.545-2.27-5.894-6.239-5.894-10.751z" />
<metadata
   id="metadata3"><rdf:RDF><cc:Work><dc:format>image/svg+xml</dc:format><dc:type
         rdf:resource="http://purl.org/dc/dcmitype/StillImage" /><cc:license
         rdf:resource="http://creativecommons.org/licenses/publicdomain/" /><dc:publisher><cc:Agent
           rdf:about="http://openclipart.org/"><dc:title>Openclipart</dc:title></cc:Agent></dc:publisher><dc:title>Padlock Icon (Rounded)</dc:title><dc:date>2010-06-25T18:33:28</dc:date><dc:description>a simple rounded padlock.</dc:description><dc:source>https://openclipart.org/detail/68545/padlock-icon-(rounded)-by-jaschon</dc:source><dc:creator><cc:Agent><dc:title>jaschon</dc:title></cc:Agent></dc:creator><dc:subject><rdf:Bag><rdf:li>black</rdf:li><rdf:li>black and white</rdf:li><rdf:li>key</rdf:li><rdf:li>keyhole</rdf:li><rdf:li>lock</rdf:li><rdf:li>padlock</rdf:li><rdf:li>security</rdf:li><rdf:li>silhouette</rdf:li><rdf:li>symbol</rdf:li><rdf:li>tool</rdf:li></rdf:Bag></dc:subject></cc:Work><cc:License
       rdf:about="http://creativecommons.org/licenses/publicdomain/"><cc:permits
         rdf:resource="http://creativecommons.org/ns#Reproduction" /><cc:permits
         rdf:resource="http://creativecommons.org/ns#Distribution" /><cc:permits
         rdf:resource="http://creativecommons.org/ns#DerivativeWorks" /></cc:License></rdf:RDF></metadata></svg>
