<svg width="32px" height="32px" viewBox="0 0 771 806" fill="none" xmlns="http://www.w3.org/2000/svg">
   <path fill-rule="evenodd" clip-rule="evenodd" d="M342.184 350.166C342.184 323.217 363.97 301.328 390.844 301.369C412.445 301.402 427.764 313.101 436.273 333.011C443.686 350.357 446.918 371.324 448.058 386.383C448.058 386.383 476 390.767 476 411.162C476 417.9 470.678 423.362 463.835 423.362C453.381 423.362 447.868 413.64 447.868 413.64C446.918 428.318 442.067 451.084 435.893 465.678C430.571 478.258 420.881 489.539 407.326 496.6C398.087 501.413 387.705 503.468 384.762 503.958C381.818 504.449 366.377 506.437 358.273 499.543C355.152 496.889 355.626 494.026 356.1 491.168C356.484 488.849 356.868 486.534 355.33 484.337C352.581 480.41 346.682 479.837 340.335 479.22C333.205 478.527 325.51 477.779 321.085 472.158C317.508 467.615 317.021 461.556 316.607 456.406C316.318 452.802 316.064 449.643 314.812 447.76C313.033 445.084 309.661 443.084 306.118 440.982C300.071 437.395 293.523 433.51 293.523 425.458C293.523 419.688 298.063 419.833 304.495 420.037C312.3 420.285 322.89 420.622 331.539 410.591C332.212 409.691 329.247 410.052 325.571 410.499C323.015 410.81 320.114 411.162 317.853 411.162C311.135 411.162 305.878 405.701 305.878 398.963C305.878 381.816 327.615 374.565 345.102 374.565C345.102 374.565 342.184 363.7 342.184 350.166ZM424.942 347.739C425.47 352.042 423.283 355.851 420.056 356.247C416.829 356.643 413.785 353.476 413.257 349.174C412.729 344.872 414.916 341.063 418.143 340.667C421.37 340.271 424.414 343.437 424.942 347.739ZM395.458 357.886C398.684 357.49 400.872 353.681 400.344 349.379C399.815 345.076 396.771 341.91 393.545 342.306C390.318 342.702 388.13 346.511 388.659 350.813C389.187 355.116 392.231 358.282 395.458 357.886Z" fill="white"/>
   <path d="M385.155 576.305C587.378 576.305 751.311 498.582 751.311 402.706C751.311 306.829 587.378 229.106 385.155 229.106C182.933 229.106 19 306.829 19 402.706C19 498.582 182.933 576.305 385.155 576.305Z" stroke="url(#paint0_radial_378_19)" stroke-width="37.5001"/>
   <path d="M536.065 315.906C434.954 141.436 285.423 38.8614 202.078 86.7996C118.733 134.738 133.135 315.035 234.246 489.505C335.357 663.975 484.888 766.55 568.233 718.611C651.578 670.673 637.176 490.376 536.065 315.906Z" stroke="url(#paint1_radial_378_19)" stroke-width="37.5002"/>
   <path d="M234.246 315.906C133.135 490.376 118.732 670.674 202.077 718.612C285.423 766.55 434.954 663.975 536.065 489.505C637.176 315.035 651.578 134.738 568.233 86.7997C484.888 38.8616 335.357 141.436 234.246 315.906Z" stroke="url(#paint2_radial_378_19)" stroke-width="37.5002"/>
   <defs>
   <radialGradient id="paint0_radial_378_19" cx="0" cy="0" r="1" gradientUnits="userSpaceOnUse" gradientTransform="translate(383.155 234.706) rotate(135.903) scale(181.117 164.315)">
   <stop stop-color="#41B3EC"/>
   <stop offset="1" stop-color="#0581C4"/>
   </radialGradient>
   <radialGradient id="paint1_radial_378_19" cx="0" cy="0" r="1" gradientUnits="userSpaceOnUse" gradientTransform="translate(227.156 476.706) rotate(27.5472) scale(150.877 195.572)">
   <stop stop-color="#41B3EC"/>
   <stop offset="1" stop-color="#0581C4"/>
   </radialGradient>
   <radialGradient id="paint2_radial_378_19" cx="0" cy="0" r="1" gradientUnits="userSpaceOnUse" gradientTransform="translate(545.155 476.705) rotate(-114.755) scale(239.424 255.575)">
   <stop stop-color="#41B3EC"/>
   <stop offset="1" stop-color="#0581C4"/>
   </radialGradient>
   </defs>
</svg>
